<?xml version="1.0" encoding="UTF-8" standalone="no"?>
<!-- Created with Inkscape (http://www.inkscape.org/) -->

<svg
   width="726.41699"
   height="448.78201"
   viewBox="0 0 192.19782 118.74024"
   version="1.1"
   id="svg1"
   inkscape:version="1.3 (0e150ed6c4, 2023-07-21)"
   sodipodi:docname="Estica map.svg"
   inkscape:export-filename="Estica map.png"
   inkscape:export-xdpi="300"
   inkscape:export-ydpi="300"
   xmlns:inkscape="http://www.inkscape.org/namespaces/inkscape"
   xmlns:sodipodi="http://sodipodi.sourceforge.net/DTD/sodipodi-0.dtd"
   xmlns="http://www.w3.org/2000/svg"
   xmlns:svg="http://www.w3.org/2000/svg">
  <sodipodi:namedview
     id="namedview1"
     pagecolor="#ffffff"
     bordercolor="#a3a3a3"
     borderopacity="1"
     inkscape:showpageshadow="0"
     inkscape:pageopacity="0"
     inkscape:pagecheckerboard="0"
     inkscape:deskcolor="#333333"
     inkscape:document-units="px"
     inkscape:zoom="1.3077722"
     inkscape:cx="220.60417"
     inkscape:cy="288.2765"
     inkscape:window-width="1920"
     inkscape:window-height="1001"
     inkscape:window-x="-9"
     inkscape:window-y="-9"
     inkscape:window-maximized="1"
     inkscape:current-layer="g394_00000003786993387944179850000010773924830748158396_" />
  <defs
     id="defs1">
    <rect
       x="764.95227"
       y="39.5"
       width="49.499939"
       height="24.065523"
       id="rect1759" />
    <rect
       x="864.95197"
       y="39.5"
       width="99.5"
       height="19.855886"
       id="rect1815" />
  </defs>
  <rect
     style="fill:#c7e8ef;fill-opacity:1;stroke-width:0.331804"
     id="rect1"
     width="192.19783"
     height="118.74023"
     x="-3.1780914e-06"
     y="5.4397774e-06"
     inkscape:label="Background"
     sodipodi:insensitive="true" />
  <g
     inkscape:groupmode="layer"
     id="layer23"
     inkscape:label="Estica"
     style="display:inline"
     transform="matrix(0.26458333,0,0,0.26458333,-217.75999,-152.65423)">
    <g
       id="Estica_Only_No_colors"
       style="display:inline;fill:#f2ede7;fill-opacity:1;stroke-width:2.64022"
       transform="matrix(0.68591429,0,0,0.68591429,749.27379,544.01702)"
       inkscape:label="Border">
      <g
         id="g1843"
         style="display:inline;fill:#f2ede7;fill-opacity:1;stroke-width:2.64022"
         inkscape:label="Mainland">
        <path
           id="path3130_00000087390446108071497490000014416613280489232520_"
           class="st3"
           d="m 517.5,260.3 5.5,18 12.5,3.8 -12.5,32.3 -13,-5.3 -9,-10.5 1.5,-18.8 z"
           style="fill:#f2ede7;fill-opacity:1;stroke:#000000;stroke-width:2.64022;stroke-linejoin:round" />
        <path
           id="path3132_00000180324590946815827820000016589592129771148441_"
           class="st3"
           d="m 493.5,258.9 -8.3,19.4 -5.3,1.5 -1.5,-14.3 z"
           style="fill:#f2ede7;fill-opacity:1;stroke:#000000;stroke-width:2.64022;stroke-linejoin:round" />
        <path
           id="path3134_00000045608639011160781930000014077106536315000729_"
           class="st3"
           d="m 536.9,339.1 v 13.5 l -13.9,3 -4.7,-15.8 4.7,-9 z"
           style="fill:#f2ede7;fill-opacity:1;stroke:#000000;stroke-width:2.64022;stroke-linejoin:round" />
        <path
           id="path3136_00000150786087587140336810000014111920677021283228_"
           class="st3"
           d="m 538.2,378.9 v 21 l -10.6,10.6 -27.9,-9 c 0,0 17.3,-10.5 17.3,-15.8 0,-5.3 -10.6,-9 0,-10.5 10.6,-1.5 21.2,3.7 21.2,3.7 z"
           style="fill:#f2ede7;fill-opacity:1;stroke:#000000;stroke-width:2.64022;stroke-linejoin:round" />
        <path
           id="path3138_00000036960792010657369260000009109920163565953169_"
           class="st3"
           d="m 539.5,433.1 -7.2,13 -4.8,10.8 v 22 l -13.6,-4.9 -4.5,-3.1 c 0,0 -3.7,-17.1 4.9,-16.2 8.6,0.9 13.2,-9.9 13.2,-9.9 z"
           style="fill:#f2ede7;fill-opacity:1;stroke:#000000;stroke-width:2.64022;stroke-linejoin:round" />
        <path
           id="path3140_00000152260941633886680280000013357853804443727275_"
           class="st3"
           d="m 524.1,426.3 -5.2,13.5 -11.6,4.5 -7.7,-7.6 c 0,0 -3.7,-21.6 5.3,-18 9,3.6 19.2,7.6 19.2,7.6 z"
           style="fill:#f2ede7;fill-opacity:1;stroke:#000000;stroke-width:2.64022;stroke-linejoin:round" />
        <path
           id="path3142_00000021823272962770903740000002850283200736581779_"
           class="st3"
           d="m 527.6,492.3 -2.1,14.4 -11,-0.9 -12.1,-6.3 v -9.4 z"
           style="fill:#f2ede7;fill-opacity:1;stroke:#000000;stroke-width:2.64022;stroke-linejoin:round" />
        <path
           id="path3144_00000029040176062029897430000015758897309405927839_"
           class="st3"
           d="M 536.9,529.2 519,518 c 0,0 -14.9,-7.6 -14.9,2.7 0,10.3 0,16.6 7.4,18.9 7.4,2.2 25.4,21.6 25.4,21.6 0,0 4,-0.4 4,-8.1 0,-7.7 -4,-23.9 -4,-23.9 z"
           style="fill:#f2ede7;fill-opacity:1;stroke:#000000;stroke-width:2.64022;stroke-linejoin:round" />
        <path
           id="path3146_00000165914261565030027510000011089076976029536644_"
           class="st3"
           d="m 511.5,556.1 7.4,9.9 5.2,3.6 7.8,4.9 4.5,12.1 -13.9,11.2 -7.5,-3.1 v -22.9 z"
           style="fill:#f2ede7;fill-opacity:1;stroke:#000000;stroke-width:2.64022;stroke-linejoin:round" />
        <path
           id="path3148_00000016067314999053925710000018072963116428791693_"
           class="st3"
           d="m 511.5,323.5 -4.2,9 -12.5,-6.7 z"
           style="fill:#f2ede7;fill-opacity:1;stroke:#000000;stroke-width:2.64022;stroke-linejoin:round" />
        <path
           id="path3150_00000016061841875298895890000017121847273399683746_"
           class="st3"
           d="m 522.5,614.5 -12.3,9.9 v 10.3 c 0,0 12.3,4.9 4.7,7.6 -7.6,2.7 -12.6,3.6 -17.3,3.6 -4.7,0 -8.3,-4.9 -5.6,-10.3 2.7,-5.4 18.2,-18.9 18.2,-18.9 z"
           style="fill:#f2ede7;fill-opacity:1;stroke:#000000;stroke-width:2.64022;stroke-linejoin:round" />
        <path
           id="path3152_00000095338389668370549360000017380535835437015733_"
           class="st3"
           d="m 506.7,608.7 -9.2,4.5 -7.9,7.2 v -12.6 l 4,-6.3 c 0,0 9,-15.3 9,-10.8 0.1,4.5 4.1,18 4.1,18 z"
           style="fill:#f2ede7;fill-opacity:1;stroke:#000000;stroke-width:2.64022;stroke-linejoin:round" />
        <path
           id="path3154_00000121962625204097183750000017960562472099349918_"
           class="st3"
           d="m 512.8,364.8 -9.7,8.8 v 8.8 l -4.8,4.5 -4.8,-0.4 c 0,0 -6.7,-6.1 -3.3,-9.4 3.3,-3.4 17.2,-17.5 17.2,-17.5 v 2.7 z"
           style="fill:#f2ede7;fill-opacity:1;stroke:#000000;stroke-width:2.64022;stroke-linejoin:round" />
        <path
           id="path2402_00000085952140076821349490000009018836869742283178_"
           class="st3"
           d="m 970,207.9 v 0 l 16.5,17.6 -11.2,11.5 -8.4,6 v 10.8 l 7.3,27.2 -14.6,16.7 c 0,0 2.1,4.2 9.4,4.2 7.3,0 3.1,18.8 3.1,18.8 0,0 28.7,4.2 14.3,12.6 -14.3,8.4 0,20.9 0,20.9 v 13.6 c 0,0 20.2,37.6 16,37.6 -4.2,0 -3.1,21 -3.1,21 l -12.9,27.2 v 25.1 l 9.7,12.6 c 0,0 0,-7.3 1,16.7 1,24.1 12.9,12.6 1,24.1 -11.8,11.5 -0.7,1 -6.3,15.7 -5.5,14.6 2.1,36.6 3.1,42.9 1,6.3 2.1,18.8 2.1,30.3 0,11.5 -1,10.5 -22,17.8 -20.9,7.3 -25.1,-23 -39.8,-4.2 -14.6,18.8 -38.7,40.8 -65.9,36.6 C 842.1,667 862,636.7 862,636.7 l -12.6,-6.3 -35.6,11.5 c 0,0 11.5,10.5 7.3,24.1 -4.2,13.6 -5.2,-4.2 -23,-8.4 -17.8,-4.2 -37.7,-1 -37.7,-1 l -14.6,3.1 -7.3,-5.2 -22,9.4 -16.7,-5.2 -27.2,-2.1 -7.3,13.6 -29.3,-2.1 -15.4,-11.5 c 0,0 -18.8,-5.2 -4.2,-5.2 14.6,0 25.1,-3.1 25.1,-8.4 0,-5.3 -19.9,-14.7 -19.9,-14.7 l -16.7,-1 -16.7,8.4 c 0,0 1,6.3 -11.5,8.4 -12.6,2.1 -32.4,3.1 -32.4,3.1 h -15.7 l -4.2,-20.9 18.8,-15.7 c 0,0 3.1,5.2 4.2,-15.7 1,-20.9 1,-23 1,-23 0,0 13.6,-12.6 5.2,-27.2 C 545.2,530.1 539,504.9 539,504.9 l -1,-28.2 10.5,-19.9 9.4,-20.9 -6.3,-30.4 3.1,-28.2 -4.2,-24.1 c 0,0 -14.6,-26.2 -5.2,-34.5 9.4,-8.4 12.6,-47.1 12.6,-47.1 0,0 -15.7,-8.4 -6.3,-13.6 9.4,-5.2 -9.4,-15 -9.4,-15 l 7.3,-35.1 z"
           style="fill:#f2ede7;fill-opacity:1;stroke:#000000;stroke-width:2.64022;stroke-linejoin:round" />
      </g>
      <g
         id="g6641"
         inkscape:label="Bayam"
         style="display:inline;fill:#f2ede7;fill-opacity:1">
        <path
           id="path305_00000113316268395679169550000006408174531871800498_"
           class="st3"
           d="m 302,528.2 h 24.9 l 6.9,10.6 c 0,0 -8.1,5 -4.4,9.4 3.7,4.4 0.6,7 0.6,7 l -15,10.1 h -21.2 c 0,0 -10.8,-4.8 -6.6,-11.6 4.1,-6.8 0,-11.6 0,-11.6 l -1,-13.9 z"
           style="fill:#f2ede7;fill-opacity:1;stroke:#000000;stroke-width:2.64022;stroke-linejoin:round" />
        <polygon
           id="polygon307_00000141448338086009085440000014537155686514673587_"
           class="st3"
           points="277.1,504.5 283.8,514.6 293.9,521.3 302.1,513.2 313.5,512.3 308.3,507 285.2,496.3 "
           style="fill:#f2ede7;fill-opacity:1;stroke:#000000;stroke-width:2.64022;stroke-linejoin:round" />
        <path
           id="path309_00000064338758571346192460000002933356322209175698_"
           class="st3"
           d="m 232.8,524.1 7.9,-5.9 4.6,8.5 -4.6,7.3 c 0,0 -11.8,9.3 -11.3,0 0.5,-9.2 3.4,-9.9 3.4,-9.9 z"
           style="fill:#f2ede7;fill-opacity:1;stroke:#000000;stroke-width:2.64022;stroke-linejoin:round" />
        <polygon
           id="polygon311_00000114048676585739558870000009091653915115429561_"
           class="st3"
           points="277.7,582.1 282.7,576.2 278.9,572 275.2,572 266.4,578.5 270.8,584.9 "
           style="fill:#f2ede7;fill-opacity:1;stroke:#000000;stroke-width:2.64022;stroke-linejoin:round" />
        <path
           id="path313_00000174589972908020782790000008460851440487813010_"
           class="st3"
           d="m 264.5,599 11.1,6.4 7.5,-9.1 6.9,-4.5 5.3,5 11.2,-4.8 c 0,0 -3.6,-3.2 2.1,-8.2 5.7,-5 9.5,-9.7 9.5,-9.7 l 6.4,6.1 -9.5,15.8 c 0,0 -0.4,0.3 -7.7,5 -7.3,4.7 -26.5,12.7 -26.5,12.7 l -12.5,-2.3 -8.6,-1.2 -3.7,-5.6 c 0.2,-0.2 3.4,-5.9 8.5,-5.6 z"
           style="fill:#f2ede7;fill-opacity:1;stroke:#000000;stroke-width:2.64022;stroke-linejoin:round" />
        <path
           id="path315_00000111183782137655801340000010376114422346304946_"
           class="st3"
           d="m 254.2,535.8 c -3.3,7.5 4.5,8.7 4.5,8.7 l 11.4,-4.4 3.6,-11 -8.3,1.7 c 0,0 -8.3,-2.5 -8.3,-1.7 0,0.9 -2.9,6.7 -2.9,6.7 z"
           style="fill:#f2ede7;fill-opacity:1;stroke:#000000;stroke-width:2.64022;stroke-linejoin:round" />
        <path
           id="path317_00000038412605111375993830000012905134996679988883_"
           class="st3"
           d="m 246,557.9 c 4.2,7 8.3,9.1 8.3,9.1 l 3.3,-12.7 -9.2,-2.7 z"
           style="fill:#f2ede7;fill-opacity:1;stroke:#000000;stroke-width:2.64022;stroke-linejoin:round" />
        <path
           id="path319_00000049933528270390924180000001079089444385877892_"
           class="st3"
           d="m 196.2,528.2 c 0,0 16.7,-4.2 20.8,15.8 4.2,20 10.8,28.2 10.8,28.2 l -9.5,11.2 h -6.2 l -6.2,4 h -7.5 l -11.7,-10.6 -15.4,3.5 -2.9,-12.8 -7.9,-9.9 -3.5,-4.6 v -6.4 l 6.2,-9.8 c 0,0 -3.3,-6.9 2.5,-7.8 5.8,-0.9 8.7,-7.8 8.7,-7.8 h 14.5 l 3.3,7.8 z"
           style="fill:#f2ede7;fill-opacity:1;stroke:#000000;stroke-width:2.64022;stroke-linejoin:round" />
        <polygon
           id="polygon321_00000117673468540145259790000015838950029183181995_"
           class="st3"
           points="223.2,604.7 223.2,607.4 215.6,604.7 215.6,602.3 227.7,596 229.4,602.3 "
           style="fill:#f2ede7;fill-opacity:1;stroke:#000000;stroke-width:2.64022;stroke-linejoin:round" />
        <polygon
           id="polygon323_00000117636353872728218890000009242875545515620008_"
           class="st3"
           points="192.4,596 196.2,601.7 192.4,602.3 184,597.3 176.6,597.3 180.7,592.2 192.4,593.9 "
           style="fill:#f2ede7;fill-opacity:1;stroke:#000000;stroke-width:2.64022;stroke-linejoin:round" />
      </g>
      <g
         id="g1860"
         style="display:inline;fill:#f2ede7;fill-opacity:1;stroke-width:2.64022"
         inkscape:label="Besu cluster">
        <path
           id="path325_00000121246078035335634550000002486346223828509337_"
           class="st3"
           d="m 280.9,308.1 c 0,-2 7.7,-6.8 7.7,-6.8 l 8.9,-4.2 8.3,5.5 12.4,3.2 2.1,9.5 v 10 l -10.1,5.9 -7,1.3 -3.4,5.4 -11.2,-8.6 h -9.7 l -2.8,-9.5 v -9.5 z"
           style="fill:#f2ede7;fill-opacity:1;stroke:#000000;stroke-width:2.64022;stroke-linejoin:round" />
        <path
           id="path327_00000001656549749868161560000005086696649909944760_"
           class="st3"
           d="m 328.6,322.6 c 6.3,-2.2 6.3,0 6.3,0 0,0 -1.9,6.3 0,5.7 1.9,-0.5 5.7,0.1 5.7,0.1 l -1.9,6.4 c 0,0 -1.6,1.2 -3,0 -1.3,-1.2 -7.1,-3.7 -7.1,-3.7 l -4.1,-2.6 z"
           style="fill:#f2ede7;fill-opacity:1;stroke:#000000;stroke-width:2.64022;stroke-linejoin:round" />
        <polygon
           id="polygon329_00000061442396654131392720000015715780582609142950_"
           class="st3"
           points="287.3,351.2 281.9,349.4 276.4,338.4 283.7,336.2 287.3,341.2 291.1,347 "
           style="fill:#f2ede7;fill-opacity:1;stroke:#000000;stroke-width:2.64022;stroke-linejoin:round" />
        <polygon
           id="polygon331_00000019643255592713034810000008170372094075367079_"
           class="st3"
           points="257,351.6 260.9,356.5 268.9,351.6 264.9,347.4 257,343.1 "
           style="fill:#f2ede7;fill-opacity:1;stroke:#000000;stroke-width:2.64022;stroke-linejoin:round" />
        <path
           id="path333_00000018935807111219989280000009169918847853894569_"
           class="st3"
           d="m 259.2,329.5 3.4,5.6 c 0,0 5.9,-4.3 6.2,-5.6 0.3,-1.3 -2.3,-7.7 -2.3,-7.7 l -6,2.1 -3.5,4.5 z"
           style="fill:#f2ede7;fill-opacity:1;stroke:#000000;stroke-width:2.64022;stroke-linejoin:round" />
      </g>
    </g>
    <g
       id="Icons_Black"
       style="display:inline;stroke-width:2.64022"
       inkscape:label="icons"
       transform="matrix(0.68591429,0,0,0.68591429,749.27379,544.01702)">
      <polygon
         id="polygon390_00000065753685581829470360000004153974104017355922_"
         class="st4"
         points="1004.8,99.4 1006.2,91.4 1000.4,85.8 1008.4,84.6 1012,77.3 1015.5,84.6 1023.6,85.8 1017.8,91.4 1019.1,99.4 1012,95.6 "
         style="fill:#ffcc00;stroke-width:2.64022" />
      <g
         id="g394_00000023976153243748684810000002447054468812133566_"
         style="stroke-width:2.64022;fill:#ffcc00">
        <rect
           id="rect390_00000177462964302796848380000013840331324506617235_"
           x="1008.8"
           y="114.1"
           transform="matrix(0.7071,-0.7071,0.7071,0.7071,213.5457,749.8704)"
           class="st5"
           width="6.1999998"
           height="6.1999998"
           style="fill:#ffcc00;stroke-width:2.64022" />
        <rect
           id="rect391_00000178899645866547897630000013646642648439081095_"
           x="1000.2"
           y="114.1"
           transform="matrix(0.7071,-0.7071,0.7071,0.7071,210.9722,743.7894)"
           class="st5"
           width="6.1999998"
           height="6.1999998"
           style="fill:#ffcc00;stroke-width:2.64022" />
        <rect
           id="rect392_00000098923672340750900360000008557074128108868268_"
           x="1008.8"
           y="122.8"
           transform="matrix(0.7071,-0.7071,0.7071,0.7071,207.394,752.4147)"
           class="st5"
           width="6.1999998"
           height="6.1999998"
           style="fill:#ffcc00;stroke-width:2.64022" />
        <rect
           id="rect393_00000168101215541242334350000000140865533214879158_"
           x="1017.5"
           y="114.1"
           transform="matrix(0.7071,-0.7071,0.7071,0.7071,216.0899,756.0222)"
           class="st5"
           width="6.1999998"
           height="6.1999998"
           style="fill:#ffcc00;stroke-width:2.64022" />
        <rect
           id="rect394_00000113319966659622599810000013280108317437775792_"
           x="1008.9"
           y="105.4"
           transform="matrix(0.7071,-0.7071,0.7071,0.7071,219.6974,747.3262)"
           class="st5"
           width="6.1999998"
           height="6.1999998"
           style="fill:#ffcc00;stroke-width:2.64022" />
      </g>
      <circle
         id="circle394_00000044153094379379727130000018438541994595118740_"
         class="st6"
         cx="1012"
         cy="146"
         r="9.5"
         style="fill:#e31c49;stroke-width:2.64022" />
      <g
         id="g401_00000104673994987489331910000002081126907938383000_"
         style="stroke-width:2.64022">
        <g
           id="g400_00000125566678074662298170000006679528075684782501_"
           style="stroke-width:2.64022">
          <path
             id="path394_00000165200316088442719410000001378238906612009127_"
             d="m 1037.8,96.4 c -0.8,0 -1.5,-0.1 -2.2,-0.4 -0.7,-0.3 -1.3,-0.7 -1.8,-1.2 -0.5,-0.5 -0.9,-1.2 -1.2,-1.9 -0.3,-0.7 -0.4,-1.5 -0.4,-2.3 0,-0.8 0.1,-1.6 0.4,-2.3 0.3,-0.7 0.7,-1.3 1.2,-1.9 0.5,-0.5 1.1,-1 1.8,-1.3 0.7,-0.3 1.4,-0.5 2.2,-0.5 0.8,0 1.4,0.1 1.9,0.3 0.5,0.2 1.1,0.5 1.6,1 0.1,0.1 0.1,0.1 0.2,0.2 0,0.1 0.1,0.1 0.1,0.2 0,0.1 0,0.1 0,0.2 0,0.2 -0.1,0.3 -0.2,0.5 -0.1,0.1 -0.3,0.2 -0.5,0.2 -0.2,0 -0.4,0 -0.5,-0.2 -0.4,-0.3 -0.7,-0.6 -1.1,-0.7 -0.4,-0.2 -0.9,-0.2 -1.5,-0.2 -0.6,0 -1.1,0.1 -1.6,0.4 -0.5,0.2 -1,0.6 -1.3,1 -0.4,0.4 -0.7,0.9 -0.9,1.4 -0.2,0.5 -0.3,1.1 -0.3,1.7 0,0.6 0.1,1.2 0.3,1.8 0.2,0.6 0.5,1 0.9,1.4 0.4,0.4 0.8,0.7 1.3,1 0.5,0.2 1.1,0.3 1.6,0.3 0.5,0 1,-0.1 1.4,-0.3 0.4,-0.2 0.9,-0.4 1.3,-0.7 0.2,-0.1 0.4,-0.2 0.5,-0.2 0.2,0 0.3,0.1 0.4,0.2 0.1,0.1 0.2,0.3 0.2,0.5 0,0.1 0,0.2 -0.1,0.3 0,0.1 -0.1,0.2 -0.2,0.3 -0.5,0.4 -1.1,0.7 -1.7,1 -0.5,0.1 -1.2,0.2 -1.8,0.2 z"
             style="stroke-width:2.64022" />
          <path
             id="path395_00000022530737515337608620000003884071246661394877_"
             d="m 1047.2,96.3 c -0.7,0 -1.4,-0.2 -1.9,-0.5 -0.6,-0.4 -1,-0.8 -1.3,-1.5 -0.3,-0.6 -0.5,-1.3 -0.5,-2.1 0,-0.8 0.2,-1.5 0.5,-2.1 0.3,-0.6 0.8,-1.1 1.5,-1.5 0.7,-0.4 1.3,-0.5 2.1,-0.5 0.8,0 1.4,0.2 2.1,0.5 0.7,0.3 1.1,0.8 1.4,1.5 0.3,0.7 0.5,1.3 0.5,2.1 h -0.6 c 0,0.8 -0.2,1.5 -0.5,2.1 -0.3,0.6 -0.8,1.1 -1.3,1.5 -0.6,0.3 -1.2,0.5 -2,0.5 z m 0.3,-1.3 c 0.5,0 0.9,-0.1 1.3,-0.4 0.4,-0.2 0.7,-0.6 0.9,-1 0.2,-0.4 0.3,-0.9 0.3,-1.4 0,-0.5 -0.1,-1 -0.3,-1.4 -0.2,-0.4 -0.5,-0.7 -0.9,-1 -0.4,-0.2 -0.8,-0.4 -1.3,-0.4 -0.5,0 -0.9,0.1 -1.3,0.4 -0.4,0.2 -0.7,0.6 -0.9,1 -0.2,0.4 -0.3,0.9 -0.3,1.4 0,0.5 0.1,1 0.3,1.4 0.2,0.4 0.5,0.7 0.9,1 0.4,0.2 0.8,0.4 1.3,0.4 z m 3.3,1.2 c -0.2,0 -0.4,-0.1 -0.5,-0.2 -0.1,-0.1 -0.2,-0.3 -0.2,-0.5 v -2.2 l 0.3,-1.6 1.2,0.5 v 3.3 c 0,0.2 -0.1,0.4 -0.2,0.5 -0.1,0.1 -0.4,0.2 -0.6,0.2 z"
             style="stroke-width:2.64022" />
          <path
             id="path396_00000082337430640415002640000012305944337766712491_"
             d="m 1054.6,99.7 c -0.2,0 -0.4,-0.1 -0.5,-0.2 -0.1,-0.1 -0.2,-0.3 -0.2,-0.5 v -6.7 c 0,-0.8 0.2,-1.5 0.5,-2.1 0.4,-0.6 0.8,-1.1 1.4,-1.5 0.6,-0.4 1.3,-0.5 2.1,-0.5 0.8,0 1.5,0.2 2.1,0.5 0.6,0.4 1.1,0.8 1.4,1.5 0.4,0.6 0.5,1.3 0.5,2.1 0,0.8 -0.2,1.5 -0.5,2.1 -0.3,0.6 -0.8,1.1 -1.3,1.5 -0.6,0.4 -1.2,0.5 -1.9,0.5 -0.6,0 -1.1,-0.1 -1.6,-0.4 -0.5,-0.2 -0.9,-0.6 -1.2,-1 v 4 c 0,0.2 -0.1,0.4 -0.2,0.5 -0.1,0.1 -0.4,0.2 -0.6,0.2 z m 3.3,-4.7 c 0.5,0 0.9,-0.1 1.3,-0.4 0.4,-0.2 0.7,-0.6 0.9,-1 0.2,-0.4 0.3,-0.9 0.3,-1.4 0,-0.5 -0.1,-1 -0.3,-1.4 -0.2,-0.4 -0.5,-0.7 -0.9,-1 -0.4,-0.2 -0.8,-0.4 -1.3,-0.4 -0.5,0 -0.9,0.1 -1.3,0.4 -0.4,0.2 -0.7,0.6 -0.9,1 -0.2,0.4 -0.3,0.9 -0.3,1.4 0,0.5 0.1,1 0.3,1.4 0.2,0.4 0.5,0.7 0.9,1 0.3,0.2 0.8,0.4 1.3,0.4 z"
             style="stroke-width:2.64022" />
          <path
             id="path397_00000056405522639824741520000008700667160247571357_"
             d="m 1065,86.9 c -0.3,0 -0.5,-0.1 -0.7,-0.3 -0.2,-0.2 -0.3,-0.4 -0.3,-0.7 0,-0.3 0.1,-0.5 0.3,-0.7 0.2,-0.2 0.4,-0.3 0.7,-0.3 0.3,0 0.5,0.1 0.7,0.3 0.2,0.2 0.3,0.4 0.3,0.7 0,0.3 -0.1,0.5 -0.3,0.7 -0.2,0.2 -0.4,0.3 -0.7,0.3 z m 0,9.3 c -0.2,0 -0.4,-0.1 -0.5,-0.2 -0.1,-0.1 -0.2,-0.3 -0.2,-0.5 V 89 c 0,-0.2 0.1,-0.4 0.2,-0.5 0.1,-0.1 0.3,-0.2 0.5,-0.2 0.2,0 0.4,0.1 0.5,0.2 0.1,0.1 0.2,0.3 0.2,0.5 v 6.5 c 0,0.2 -0.1,0.4 -0.2,0.5 -0.1,0.1 -0.2,0.2 -0.5,0.2 z"
             style="stroke-width:2.64022" />
          <path
             id="path398_00000144305197688295234310000015343140058058000269_"
             d="m 1068.2,89.7 c -0.2,0 -0.4,-0.1 -0.5,-0.2 -0.1,-0.1 -0.2,-0.3 -0.2,-0.4 0,-0.2 0.1,-0.4 0.2,-0.5 0.1,-0.1 0.3,-0.2 0.5,-0.2 h 3.4 c 0.2,0 0.4,0.1 0.5,0.2 0.2,0.2 0.2,0.3 0.2,0.5 0,0.2 -0.1,0.3 -0.2,0.4 -0.1,0.1 -0.3,0.2 -0.5,0.2 z m 3.3,6.5 c -0.5,0 -0.9,-0.1 -1.3,-0.4 -0.4,-0.2 -0.7,-0.6 -0.9,-1 -0.2,-0.4 -0.3,-0.9 -0.3,-1.5 v -7 c 0,-0.2 0.1,-0.4 0.2,-0.5 0.1,-0.1 0.3,-0.2 0.5,-0.2 0.2,0 0.4,0.1 0.5,0.2 0.1,0.1 0.2,0.3 0.2,0.5 v 7 c 0,0.4 0.1,0.7 0.3,1 0.2,0.3 0.5,0.4 0.8,0.4 h 0.5 c 0.2,0 0.3,0.1 0.4,0.2 0.1,0.1 0.2,0.3 0.2,0.5 0,0.2 -0.1,0.4 -0.2,0.5 -0.1,0.1 -0.4,0.2 -0.6,0.2 z"
             style="stroke-width:2.64022" />
          <path
             id="path399_00000085939936590734589860000007230049990268005559_"
             d="m 1077.8,96.3 c -0.7,0 -1.4,-0.2 -1.9,-0.5 -0.6,-0.4 -1,-0.8 -1.3,-1.5 -0.3,-0.6 -0.5,-1.3 -0.5,-2.1 0,-0.8 0.2,-1.5 0.5,-2.1 0.3,-0.6 0.8,-1.1 1.5,-1.5 0.7,-0.4 1.3,-0.5 2.1,-0.5 0.8,0 1.4,0.2 2.1,0.5 0.7,0.3 1.1,0.8 1.4,1.5 0.3,0.7 0.5,1.3 0.5,2.1 h -0.6 c 0,0.8 -0.2,1.5 -0.5,2.1 -0.3,0.6 -0.8,1.1 -1.3,1.5 -0.6,0.3 -1.3,0.5 -2,0.5 z m 0.3,-1.3 c 0.5,0 0.9,-0.1 1.3,-0.4 0.4,-0.2 0.7,-0.6 0.9,-1 0.2,-0.4 0.3,-0.9 0.3,-1.4 0,-0.5 -0.1,-1 -0.3,-1.4 -0.2,-0.4 -0.5,-0.7 -0.9,-1 -0.4,-0.2 -0.8,-0.4 -1.3,-0.4 -0.5,0 -0.9,0.1 -1.3,0.4 -0.4,0.2 -0.7,0.6 -0.9,1 -0.2,0.4 -0.3,0.9 -0.3,1.4 0,0.5 0.1,1 0.3,1.4 0.2,0.4 0.5,0.7 0.9,1 0.4,0.2 0.8,0.4 1.3,0.4 z m 3.3,1.2 c -0.2,0 -0.4,-0.1 -0.5,-0.2 -0.1,-0.1 -0.2,-0.3 -0.2,-0.5 v -2.2 l 0.3,-1.6 1.2,0.5 v 3.3 c 0,0.2 -0.1,0.4 -0.2,0.5 -0.1,0.1 -0.4,0.2 -0.6,0.2 z"
             style="stroke-width:2.64022" />
          <path
             id="path400_00000165922148818226104760000018295938559664497797_"
             d="m 1086.3,96.2 c -0.4,0 -0.8,-0.1 -1.1,-0.4 -0.3,-0.2 -0.6,-0.6 -0.8,-1 -0.2,-0.4 -0.3,-0.9 -0.3,-1.4 v -8 c 0,-0.2 0.1,-0.4 0.2,-0.5 0.1,-0.1 0.3,-0.2 0.5,-0.2 0.2,0 0.4,0.1 0.5,0.2 0.1,0.1 0.2,0.3 0.2,0.5 v 8 c 0,0.4 0.1,0.7 0.2,0.9 0.1,0.2 0.3,0.4 0.5,0.4 h 0.4 c 0.2,0 0.4,0.1 0.5,0.2 0.1,0.1 0.2,0.3 0.2,0.5 0,0.2 -0.1,0.4 -0.3,0.5 -0.2,0.1 -0.4,0.3 -0.7,0.3 z"
             style="stroke-width:2.64022" />
        </g>
      </g>
      <g
         id="g409_00000155836712223736798410000003740511871833849791_"
         style="stroke-width:2.64022">
        <g
           id="g408_00000158725633334744560250000002226489637582681770_"
           style="stroke-width:2.64022">
          <path
             id="path401_00000059306110492035708810000002761871007187279807_"
             d="m 1038.6,125.9 c -0.8,0 -1.5,-0.1 -2.2,-0.4 -0.7,-0.3 -1.3,-0.7 -1.8,-1.2 -0.5,-0.5 -0.9,-1.2 -1.2,-1.9 -0.3,-0.7 -0.4,-1.5 -0.4,-2.3 0,-0.8 0.1,-1.6 0.4,-2.3 0.3,-0.7 0.7,-1.3 1.2,-1.9 0.5,-0.5 1.1,-1 1.8,-1.3 0.7,-0.3 1.4,-0.5 2.2,-0.5 0.8,0 1.4,0.1 1.9,0.3 0.5,0.2 1.1,0.5 1.6,1 0.1,0.1 0.1,0.1 0.2,0.2 0,0.1 0.1,0.1 0.1,0.2 0,0.1 0,0.1 0,0.2 0,0.2 -0.1,0.3 -0.2,0.5 -0.1,0.1 -0.3,0.2 -0.5,0.2 -0.2,0 -0.4,0 -0.5,-0.2 -0.4,-0.3 -0.7,-0.6 -1.1,-0.7 -0.4,-0.2 -0.9,-0.2 -1.5,-0.2 -0.6,0 -1.1,0.1 -1.6,0.4 -0.5,0.2 -1,0.6 -1.3,1 -0.4,0.4 -0.7,0.9 -0.9,1.4 -0.2,0.5 -0.3,1.1 -0.3,1.7 0,0.6 0.1,1.2 0.3,1.8 0.2,0.6 0.5,1 0.9,1.4 0.4,0.4 0.8,0.7 1.3,1 0.5,0.2 1.1,0.3 1.6,0.3 0.5,0 1,-0.1 1.4,-0.3 0.4,-0.2 0.9,-0.4 1.3,-0.7 0.2,-0.1 0.4,-0.2 0.5,-0.2 0.2,0 0.3,0.1 0.4,0.2 0.1,0.1 0.2,0.3 0.2,0.5 0,0.1 0,0.2 -0.1,0.3 0,0.1 -0.1,0.2 -0.2,0.3 -0.5,0.4 -1.1,0.7 -1.7,1 -0.5,0.1 -1.1,0.2 -1.8,0.2 z"
             style="stroke-width:2.64022" />
          <path
             id="path402_00000138543495257686916260000016974943086474907551_"
             d="m 1045.5,122.9 c -0.2,0 -0.4,-0.1 -0.5,-0.2 -0.1,-0.1 -0.2,-0.3 -0.2,-0.5 v -7.1 c 0,-0.2 0.1,-0.4 0.2,-0.5 0.1,-0.1 0.3,-0.2 0.5,-0.2 0.2,0 0.4,0.1 0.5,0.2 0.1,0.1 0.2,0.3 0.2,0.5 v 7 c 0,0.2 -0.1,0.4 -0.2,0.5 -0.1,0.2 -0.3,0.3 -0.5,0.3 z m 0,2.9 c -0.2,0 -0.4,-0.1 -0.5,-0.2 -0.1,-0.1 -0.2,-0.3 -0.2,-0.5 v -6.6 c 0,-0.2 0.1,-0.4 0.2,-0.5 0.1,-0.1 0.3,-0.2 0.5,-0.2 0.2,0 0.4,0.1 0.5,0.2 0.1,0.1 0.2,0.3 0.2,0.5 v 6.6 c 0,0.2 -0.1,0.4 -0.2,0.5 -0.1,0.1 -0.3,0.2 -0.5,0.2 z m 6.1,0 c -0.2,0 -0.4,-0.1 -0.5,-0.2 -0.1,-0.1 -0.2,-0.3 -0.2,-0.5 v -3.6 c 0,-0.6 -0.1,-1 -0.3,-1.4 -0.2,-0.4 -0.5,-0.6 -0.8,-0.8 -0.3,-0.2 -0.7,-0.3 -1.2,-0.3 -0.4,0 -0.8,0.1 -1.1,0.2 -0.3,0.2 -0.6,0.4 -0.8,0.7 -0.2,0.3 -0.3,0.6 -0.3,1 h -0.9 c 0,-0.6 0.1,-1.2 0.4,-1.7 0.3,-0.5 0.7,-0.9 1.2,-1.2 0.5,-0.3 1.1,-0.4 1.7,-0.4 0.7,0 1.3,0.1 1.8,0.4 0.5,0.3 1,0.7 1.3,1.3 0.3,0.6 0.5,1.2 0.5,2.1 v 3.6 c 0,0.2 -0.1,0.4 -0.2,0.5 -0.1,0.1 -0.4,0.3 -0.6,0.3 z"
             style="stroke-width:2.64022" />
          <path
             id="path403_00000020395993607210085870000015757276399965362085_"
             d="m 1058.2,125.9 c -0.7,0 -1.3,-0.1 -1.8,-0.4 -0.5,-0.3 -1,-0.7 -1.3,-1.3 -0.3,-0.6 -0.5,-1.2 -0.5,-2.1 v -3.6 c 0,-0.2 0.1,-0.4 0.2,-0.5 0.1,-0.1 0.3,-0.2 0.5,-0.2 0.2,0 0.4,0.1 0.5,0.2 0.1,0.1 0.2,0.3 0.2,0.5 v 3.6 c 0,0.5 0.1,1 0.3,1.4 0.2,0.4 0.5,0.6 0.8,0.8 0.4,0.2 0.7,0.3 1.2,0.3 0.4,0 0.8,-0.1 1.1,-0.2 0.3,-0.2 0.6,-0.4 0.8,-0.7 0.2,-0.3 0.3,-0.6 0.3,-1 h 0.9 c 0,0.6 -0.1,1.2 -0.4,1.6 -0.3,0.4 -0.7,0.9 -1.2,1.2 -0.4,0.2 -1,0.4 -1.6,0.4 z m 3.2,-0.1 c -0.2,0 -0.4,-0.1 -0.5,-0.2 -0.1,-0.1 -0.2,-0.4 -0.2,-0.6 v -6.6 c 0,-0.2 0.1,-0.4 0.2,-0.5 0.1,-0.1 0.3,-0.2 0.5,-0.2 0.2,0 0.4,0.1 0.5,0.2 0.1,0.1 0.2,0.3 0.2,0.5 v 6.6 c 0,0.2 -0.1,0.4 -0.2,0.5 -0.1,0.1 -0.2,0.3 -0.5,0.3 z"
             style="stroke-width:2.64022" />
          <path
             id="path404_00000080899985528117204720000006971486037560021666_"
             d="m 1065.6,125.8 c -0.2,0 -0.4,-0.1 -0.5,-0.2 -0.1,-0.1 -0.2,-0.3 -0.2,-0.6 v -6.6 c 0,-0.2 0.1,-0.4 0.2,-0.5 0.1,-0.1 0.3,-0.2 0.5,-0.2 0.2,0 0.4,0.1 0.6,0.2 0.2,0.1 0.2,0.3 0.2,0.6 v 6.6 c 0,0.2 -0.1,0.4 -0.2,0.5 -0.1,0.1 -0.4,0.2 -0.6,0.2 z m -0.1,-5 c 0,-0.6 0.1,-1.1 0.4,-1.6 0.3,-0.5 0.7,-0.8 1.2,-1.1 0.5,-0.3 1,-0.4 1.6,-0.4 0.6,0 1,0.1 1.3,0.3 0.3,0.2 0.4,0.4 0.3,0.7 0,0.1 -0.1,0.2 -0.2,0.3 -0.1,0.1 -0.2,0.1 -0.3,0.1 -0.1,0 -0.2,0 -0.4,0 -0.6,-0.1 -1.2,-0.1 -1.7,0 -0.5,0.1 -0.9,0.3 -1.2,0.6 -0.3,0.3 -0.4,0.7 -0.4,1.1 z"
             style="stroke-width:2.64022" />
          <path
             id="path405_00000121962468548116775410000010132329813270432128_"
             d="m 1075.6,125.8 c -0.8,0 -1.5,-0.2 -2.1,-0.5 -0.6,-0.4 -1.1,-0.8 -1.4,-1.5 -0.3,-0.7 -0.5,-1.3 -0.5,-2.1 0,-0.8 0.2,-1.5 0.5,-2.1 0.3,-0.6 0.8,-1.1 1.4,-1.4 0.6,-0.3 1.3,-0.5 2.1,-0.5 0.6,0 1.1,0.1 1.6,0.3 0.5,0.2 0.9,0.6 1.3,1 0.1,0.2 0.2,0.3 0.1,0.5 0,0.2 -0.1,0.3 -0.3,0.4 -0.1,0.1 -0.3,0.1 -0.5,0.1 -0.2,0 -0.3,-0.1 -0.5,-0.3 -0.5,-0.5 -1.1,-0.8 -1.8,-0.8 -0.5,0 -0.9,0.1 -1.3,0.3 -0.4,0.2 -0.7,0.6 -0.9,1 -0.2,0.4 -0.3,0.9 -0.3,1.5 0,0.5 0.1,1 0.3,1.4 0.2,0.4 0.5,0.7 0.9,1 0.4,0.2 0.8,0.4 1.4,0.4 0.3,0 0.6,0 0.9,-0.1 0.3,-0.1 0.5,-0.2 0.7,-0.4 0.2,-0.1 0.3,-0.2 0.5,-0.2 0.2,0 0.3,0 0.4,0.1 0.2,0.1 0.3,0.3 0.3,0.5 0,0.2 0,0.3 -0.2,0.5 -0.7,0.6 -1.5,0.9 -2.6,0.9 z"
             style="stroke-width:2.64022" />
          <path
             id="path406_00000133506692045381835780000009900185074783669634_"
             d="m 1081.5,122.9 c -0.2,0 -0.4,-0.1 -0.5,-0.2 -0.1,-0.1 -0.2,-0.3 -0.2,-0.5 v -7.1 c 0,-0.2 0.1,-0.4 0.2,-0.5 0.1,-0.1 0.3,-0.2 0.5,-0.2 0.2,0 0.4,0.1 0.5,0.2 0.1,0.1 0.2,0.3 0.2,0.5 v 7 c 0,0.2 -0.1,0.4 -0.2,0.5 -0.1,0.2 -0.2,0.3 -0.5,0.3 z m 0,2.9 c -0.2,0 -0.4,-0.1 -0.5,-0.2 -0.1,-0.1 -0.2,-0.3 -0.2,-0.5 v -6.6 c 0,-0.2 0.1,-0.4 0.2,-0.5 0.1,-0.1 0.3,-0.2 0.5,-0.2 0.2,0 0.4,0.1 0.5,0.2 0.1,0.1 0.2,0.3 0.2,0.5 v 6.6 c 0,0.2 -0.1,0.4 -0.2,0.5 -0.1,0.1 -0.2,0.2 -0.5,0.2 z m 6.1,0 c -0.2,0 -0.4,-0.1 -0.5,-0.2 -0.1,-0.1 -0.2,-0.3 -0.2,-0.5 v -3.6 c 0,-0.6 -0.1,-1 -0.3,-1.4 -0.2,-0.4 -0.5,-0.6 -0.8,-0.8 -0.3,-0.2 -0.7,-0.3 -1.2,-0.3 -0.4,0 -0.8,0.1 -1.1,0.2 -0.3,0.2 -0.6,0.4 -0.8,0.7 -0.2,0.3 -0.3,0.6 -0.3,1 h -0.9 c 0,-0.6 0.1,-1.2 0.4,-1.7 0.3,-0.5 0.7,-0.9 1.2,-1.2 0.5,-0.3 1.1,-0.4 1.7,-0.4 0.7,0 1.3,0.1 1.8,0.4 0.5,0.3 1,0.7 1.3,1.3 0.3,0.6 0.5,1.2 0.5,2.1 v 3.6 c 0,0.2 -0.1,0.4 -0.2,0.5 -0.1,0.1 -0.4,0.3 -0.6,0.3 z"
             style="stroke-width:2.64022" />
          <path
             id="path407_00000145771111602301980150000017808970162172453760_"
             d="m 1096,125.8 c -0.2,0 -0.4,-0.1 -0.5,-0.2 -0.1,-0.1 -0.2,-0.3 -0.2,-0.5 v -10 c 0,-0.2 0.1,-0.4 0.2,-0.6 0.1,-0.1 0.3,-0.2 0.5,-0.2 0.2,0 0.4,0.1 0.6,0.2 0.1,0.1 0.2,0.3 0.2,0.6 v 4.2 h 6.8 v -4.2 c 0,-0.2 0.1,-0.4 0.2,-0.6 0.1,-0.1 0.3,-0.2 0.5,-0.2 0.2,0 0.4,0.1 0.5,0.2 0.1,0.1 0.2,0.3 0.2,0.6 v 9.9 c 0,0.2 -0.1,0.4 -0.2,0.5 -0.1,0.1 -0.3,0.2 -0.5,0.2 -0.2,0 -0.4,-0.1 -0.5,-0.2 -0.1,-0.1 -0.2,-0.3 -0.2,-0.5 v -4.4 h -6.8 v 4.4 c 0,0.2 -0.1,0.4 -0.2,0.5 -0.1,0.1 -0.3,0.3 -0.6,0.3 z"
             style="stroke-width:2.64022" />
          <path
             id="path408_00000171692381947600316880000017416069584909897642_"
             d="m 1113.4,125.9 c -0.9,0 -1.7,-0.1 -2.4,-0.4 -0.7,-0.3 -1.3,-0.7 -1.8,-1.2 -0.5,-0.5 -0.9,-1.1 -1.2,-1.9 -0.3,-0.7 -0.4,-1.5 -0.4,-2.4 0,-0.9 0.1,-1.7 0.4,-2.4 0.3,-0.7 0.7,-1.3 1.2,-1.9 0.5,-0.6 1.1,-0.9 1.8,-1.2 0.7,-0.3 1.5,-0.4 2.4,-0.4 0.9,0 1.6,0.1 2.4,0.4 0.8,0.3 1.3,0.7 1.8,1.2 0.5,0.5 0.9,1.1 1.2,1.9 0.3,0.7 0.4,1.5 0.4,2.4 0,0.9 -0.1,1.7 -0.4,2.4 -0.3,0.7 -0.7,1.3 -1.2,1.9 -0.5,0.5 -1.1,0.9 -1.8,1.2 -0.8,0.3 -1.6,0.4 -2.4,0.4 z m 0,-1.4 c 0.6,0 1.2,-0.1 1.8,-0.3 0.5,-0.2 1,-0.5 1.4,-1 0.4,-0.4 0.7,-0.9 0.9,-1.4 0.2,-0.5 0.3,-1.1 0.3,-1.8 0,-0.7 -0.1,-1.2 -0.3,-1.8 -0.2,-0.5 -0.5,-1 -0.9,-1.4 -0.4,-0.4 -0.9,-0.7 -1.4,-0.9 -0.5,-0.2 -1.1,-0.3 -1.8,-0.3 -0.7,0 -1.2,0.1 -1.8,0.3 -0.5,0.2 -1,0.5 -1.4,0.9 -0.4,0.4 -0.7,0.9 -0.9,1.4 -0.2,0.5 -0.3,1.1 -0.3,1.8 0,0.7 0.1,1.2 0.3,1.8 0.2,0.5 0.5,1 0.9,1.4 0.4,0.4 0.8,0.7 1.4,1 0.6,0.2 1.1,0.3 1.8,0.3 z m 4,1 -3.1,-3.1 c -0.2,-0.2 -0.2,-0.3 -0.2,-0.5 0,-0.2 0.1,-0.4 0.2,-0.5 0.1,-0.1 0.3,-0.2 0.5,-0.2 0.2,0 0.4,0.1 0.5,0.2 l 3.1,3.1 c 0.1,0.2 0.2,0.3 0.2,0.5 0,0.2 -0.1,0.4 -0.2,0.5 -0.1,0.1 -0.3,0.2 -0.5,0.2 -0.2,0 -0.4,0 -0.5,-0.2 z"
             style="stroke-width:2.64022" />
        </g>
      </g>
      <g
         id="g413_00000021813148502268143330000003609959617117546416_"
         style="stroke-width:2.64022">
        <g
           id="g412_00000054240108637398492750000006795587030580268197_"
           style="stroke-width:2.64022">
          <path
             id="path409_00000099649893951457392920000006414896203685345667_"
             d="m 1038.1,152 c -0.8,0 -1.5,-0.1 -2.2,-0.4 -0.7,-0.3 -1.3,-0.7 -1.8,-1.2 -0.5,-0.5 -0.9,-1.2 -1.2,-1.9 -0.3,-0.7 -0.4,-1.5 -0.4,-2.3 0,-0.8 0.1,-1.6 0.4,-2.3 0.3,-0.7 0.7,-1.3 1.2,-1.9 0.5,-0.5 1.1,-1 1.8,-1.3 0.7,-0.3 1.4,-0.5 2.2,-0.5 0.8,0 1.4,0.1 1.9,0.3 0.5,0.2 1.1,0.5 1.6,1 0.1,0.1 0.1,0.1 0.2,0.2 0,0.1 0.1,0.1 0.1,0.2 0,0.1 0,0.1 0,0.2 0,0.2 -0.1,0.3 -0.2,0.5 -0.1,0.1 -0.3,0.2 -0.5,0.2 -0.2,0 -0.4,0 -0.5,-0.2 -0.4,-0.3 -0.7,-0.6 -1.1,-0.7 -0.4,-0.2 -0.9,-0.2 -1.5,-0.2 -0.6,0 -1.1,0.1 -1.6,0.4 -0.5,0.2 -1,0.6 -1.3,1 -0.4,0.4 -0.7,0.9 -0.9,1.4 -0.2,0.5 -0.3,1.1 -0.3,1.7 0,0.6 0.1,1.2 0.3,1.8 0.2,0.6 0.5,1 0.9,1.4 0.4,0.4 0.8,0.7 1.3,1 0.5,0.2 1.1,0.3 1.6,0.3 0.5,0 1,-0.1 1.4,-0.3 0.4,-0.2 0.9,-0.4 1.3,-0.7 0.2,-0.1 0.4,-0.2 0.5,-0.2 0.2,0 0.3,0.1 0.4,0.2 0.1,0.1 0.2,0.3 0.2,0.5 0,0.1 0,0.2 -0.1,0.3 0,0.1 -0.1,0.2 -0.2,0.3 -0.5,0.4 -1.1,0.7 -1.7,1 -0.5,0.1 -1.1,0.2 -1.8,0.2 z"
             style="stroke-width:2.64022" />
          <path
             id="path410_00000147209463323988016470000016704022672160461220_"
             d="m 1045.1,142.5 c -0.3,0 -0.5,-0.1 -0.7,-0.3 -0.2,-0.2 -0.3,-0.4 -0.3,-0.7 0,-0.3 0.1,-0.5 0.3,-0.7 0.2,-0.2 0.4,-0.3 0.7,-0.3 0.3,0 0.5,0.1 0.7,0.3 0.2,0.2 0.3,0.4 0.3,0.7 0,0.3 -0.1,0.5 -0.3,0.7 -0.2,0.2 -0.4,0.3 -0.7,0.3 z m 0,9.3 c -0.2,0 -0.4,-0.1 -0.5,-0.2 -0.1,-0.1 -0.2,-0.3 -0.2,-0.5 v -6.5 c 0,-0.2 0.1,-0.4 0.2,-0.5 0.1,-0.1 0.3,-0.2 0.5,-0.2 0.2,0 0.4,0.1 0.5,0.2 0.1,0.1 0.2,0.3 0.2,0.5 v 6.5 c 0,0.2 -0.1,0.4 -0.2,0.5 -0.1,0.1 -0.3,0.2 -0.5,0.2 z"
             style="stroke-width:2.64022" />
          <path
             id="path411_00000061463167766394650330000007635167317579241143_"
             d="m 1048.3,145.4 c -0.2,0 -0.4,-0.1 -0.5,-0.2 -0.1,-0.1 -0.2,-0.3 -0.2,-0.4 0,-0.2 0.1,-0.4 0.2,-0.5 0.1,-0.1 0.3,-0.2 0.5,-0.2 h 3.4 c 0.2,0 0.4,0.1 0.5,0.2 0.1,0.1 0.2,0.3 0.2,0.5 0,0.2 -0.1,0.3 -0.2,0.4 -0.1,0.1 -0.3,0.2 -0.5,0.2 z m 3.3,6.4 c -0.5,0 -0.9,-0.1 -1.3,-0.4 -0.4,-0.2 -0.7,-0.6 -0.9,-1 -0.2,-0.4 -0.3,-0.9 -0.3,-1.5 v -7 c 0,-0.2 0.1,-0.4 0.2,-0.5 0.1,-0.1 0.3,-0.2 0.5,-0.2 0.2,0 0.4,0.1 0.5,0.2 0.1,0.1 0.2,0.3 0.2,0.5 v 7 c 0,0.4 0.1,0.7 0.3,1 0.2,0.3 0.5,0.4 0.8,0.4 h 0.5 c 0.2,0 0.3,0.1 0.4,0.2 0.1,0.1 0.2,0.3 0.2,0.5 0,0.2 -0.1,0.4 -0.2,0.5 -0.1,0.1 -0.4,0.2 -0.6,0.2 h -0.3 z"
             style="stroke-width:2.64022" />
          <path
             id="path412_00000160157290289610350430000002319650751425534604_"
             d="m 1057.7,151.5 c -0.2,0.1 -0.4,0.1 -0.5,0 -0.2,-0.1 -0.3,-0.2 -0.4,-0.4 l -3.4,-6.4 c -0.1,-0.2 -0.1,-0.4 0,-0.5 0.1,-0.2 0.2,-0.3 0.4,-0.4 0.2,-0.1 0.4,-0.1 0.5,0 0.2,0.1 0.3,0.2 0.4,0.4 l 3.2,6.4 c 0.1,0.2 0.1,0.4 0.1,0.5 0,0.1 -0.1,0.3 -0.3,0.4 z m -1.7,3.9 c -0.1,0 -0.2,0 -0.4,-0.1 -0.4,-0.2 -0.5,-0.5 -0.4,-0.9 l 4.5,-10.1 c 0.2,-0.4 0.5,-0.5 0.9,-0.4 0.4,0.2 0.6,0.5 0.4,0.9 l -4.4,10.1 c -0.2,0.3 -0.3,0.5 -0.6,0.5 z"
             style="stroke-width:2.64022" />
        </g>
      </g>
      <g
         id="g394_00000003786993387944179850000010773924830748158396_"
         style="stroke-width:2.64022;fill:#ffcc00">
        <g
           id="g1">
          <rect
             id="rect390_00000005251312041745376200000015715111919367436968_"
             x="295.70001"
             y="313.20001"
             transform="matrix(0.7071,-0.7071,0.7071,0.7071,-135.8869,303.3269)"
             class="st5"
             width="5.0999999"
             height="5.0999999"
             style="fill:#ffcc00;stroke-width:2.64022" />
          <rect
             id="rect391_00000106108216432437925780000007693737956087877026_"
             x="288.60001"
             y="313.20001"
             transform="matrix(0.7071,-0.7071,0.7071,0.7071,-137.9968,298.3415)"
             class="st5"
             width="5.0999999"
             height="5.0999999"
             style="fill:#ffcc00;stroke-width:2.64022" />
          <rect
             id="rect392_00000088815206716387792380000003521085677960535702_"
             x="295.70001"
             y="320.29999"
             transform="matrix(0.7071,-0.7071,0.7071,0.7071,-140.9303,305.4128)"
             class="st5"
             width="5.0999999"
             height="5.0999999"
             style="fill:#ffcc00;stroke-width:2.64022" />
          <rect
             id="rect393_00000140716985833621627010000000819572509203889043_"
             x="302.79999"
             y="313.20001"
             transform="matrix(0.7071,-0.7071,0.7071,0.7071,-133.801,308.3704)"
             class="st5"
             width="5.0999999"
             height="5.0999999"
             style="fill:#ffcc00;stroke-width:2.64022" />
          <rect
             id="rect394_00000030487662032426593830000015096426585684263318_"
             x="295.70001"
             y="306"
             transform="matrix(0.7071,-0.7071,0.7071,0.7071,-130.8435,301.2411)"
             class="st5"
             width="5.0999999"
             height="5.0999999"
             style="fill:#ffcc00;stroke-width:2.64022" />
        </g>
      </g>
      <circle
         id="circle394_00000183234464492293007700000014396677351732299694_"
         class="st6"
         cx="680.70001"
         cy="373.10001"
         r="7.8000002"
         style="fill:#e31c49;stroke-width:2.64022" />
      <polygon
         id="polygon390_00000052104602416288133270000013101107688229576598_"
         class="st4"
         points="562.2,442.2 563.6,434.2 557.8,428.6 565.8,427.4 569.4,420.1 572.9,427.4 581,428.6 575.2,434.2 576.5,442.2 569.4,438.4 "
         style="fill:#ffcc00;stroke-width:2.64022" />
      <circle
         id="circle394_00000007424152594688518470000000912163074464134046_"
         class="st6"
         cx="626.90002"
         cy="619.70001"
         r="7.8000002"
         style="fill:#e31c49;stroke-width:2.64022" />
      <circle
         id="circle394_00000111149268302633850220000006623218278927749049_"
         class="st6"
         cx="723.28186"
         cy="256.07254"
         r="7.8000002"
         style="fill:#e31c49;stroke-width:2.64022" />
      <circle
         id="circle394_00000159458308662975238380000014658244410557230527_"
         class="st6"
         cx="612.29999"
         cy="500.60001"
         r="7.8000002"
         style="fill:#e31c49;stroke-width:2.64022" />
      <g
         id="g394_00000149341164829264918640000000357521629902432928_"
         style="fill:#ffcc00;stroke-width:2.64022"
         transform="translate(-6.7004191,-0.7882846)">
        <rect
           id="rect390_00000124879214574734539430000001701513372896938904_"
           x="930"
           y="434.79999"
           transform="matrix(0.7071,-0.7071,0.7071,0.7071,-36.1501,787.5073)"
           class="st5"
           width="5.0999999"
           height="5.0999999"
           style="fill:#ffcc00;stroke-width:2.64022" />
        <rect
           id="rect391_00000102503138621812666130000002263174541070180543_"
           x="922.90002"
           y="434.89999"
           transform="matrix(0.7071,-0.7071,0.7071,0.7071,-38.26,782.5219)"
           class="st5"
           width="5.0999999"
           height="5.0999999"
           style="fill:#ffcc00;stroke-width:2.64022" />
        <rect
           id="rect392_00000089535584368931205900000015376884371081028540_"
           x="930"
           y="442"
           transform="matrix(0.7071,-0.7071,0.7071,0.7071,-41.1935,789.5933)"
           class="st5"
           width="5.0999999"
           height="5.0999999"
           style="fill:#ffcc00;stroke-width:2.64022" />
        <rect
           id="rect393_00000068651835851140476860000002889530901281192844_"
           x="937.09998"
           y="434.89999"
           transform="matrix(0.7071,-0.7071,0.7071,0.7071,-34.0642,792.5508)"
           class="st5"
           width="5.0999999"
           height="5.0999999"
           style="fill:#ffcc00;stroke-width:2.64022" />
        <rect
           id="rect394_00000090278911394202120460000017967197214796941752_"
           x="930"
           y="427.70001"
           transform="matrix(0.7071,-0.7071,0.7071,0.7071,-31.1067,785.4215)"
           class="st5"
           width="5.0999999"
           height="5.0999999"
           style="fill:#ffcc00;stroke-width:2.64022" />
      </g>
      <g
         id="g394_00000160166371045698923650000011935549323656588984_"
         style="stroke-width:2.64022;fill:#ffcc00">
        <rect
           id="rect390_00000026145232751728470820000009346513754814141577_"
           x="728.79999"
           y="540.70001"
           transform="matrix(0.7071,-0.7071,0.7071,0.7071,-169.9414,676.229)"
           class="st5"
           width="5.0999999"
           height="5.0999999"
           style="fill:#ffcc00;stroke-width:2.64022" />
        <rect
           id="rect391_00000182516384900948219840000017109104182473596841_"
           x="721.70001"
           y="540.79999"
           transform="matrix(0.7071,-0.7071,0.7071,0.7071,-172.0513,671.2436)"
           class="st5"
           width="5.0999999"
           height="5.0999999"
           style="fill:#ffcc00;stroke-width:2.64022" />
        <rect
           id="rect392_00000044859400428859631320000005551812448704107948_"
           x="728.79999"
           y="547.79999"
           transform="matrix(0.7071,-0.7071,0.7071,0.7071,-174.9848,678.3149)"
           class="st5"
           width="5.0999999"
           height="5.0999999"
           style="fill:#ffcc00;stroke-width:2.64022" />
        <rect
           id="rect393_00000120519978747230023260000002270096806857791669_"
           x="735.90002"
           y="540.70001"
           transform="matrix(0.7071,-0.7071,0.7071,0.7071,-167.8556,681.2725)"
           class="st5"
           width="5.0999999"
           height="5.0999999"
           style="fill:#ffcc00;stroke-width:2.64022" />
        <rect
           id="rect394_00000144307576559475850870000013225153843073582491_"
           x="728.79999"
           y="533.59998"
           transform="matrix(0.7071,-0.7071,0.7071,0.7071,-164.898,674.1432)"
           class="st5"
           width="5.0999999"
           height="5.0999999"
           style="fill:#ffcc00;stroke-width:2.64022" />
      </g>
      <circle
         id="circle394_00000126286331769084373200000004021236163629267842_"
         class="st6"
         cx="308.79999"
         cy="553.90002"
         r="3.3"
         style="fill:#e31c49;stroke-width:2.64022" />
      <circle
         id="circle394_00000125574981433953664760000018277828121873866120_"
         class="st6"
         cx="189"
         cy="561.20001"
         r="5"
         style="fill:#e31c49;stroke-width:2.64022" />
      <circle
         id="circle394_00000031928416659772584400000017747610579197154199_"
         class="st6"
         cx="903.90002"
         cy="527.5"
         r="7.8000002"
         style="fill:#e31c49;stroke-width:2.64022" />
      <rect
         x="1000.8"
         y="163.60001"
         class="st23"
         width="22.4"
         height="22.4"
         id="rect1977"
         style="fill:#38489e;stroke-width:2.64022" />
      <g
         id="g1993"
         style="stroke-width:2.64022">
        <g
           id="g1991"
           style="stroke-width:2.64022">
          <path
             d="m 1035.1,180.2 c -0.2,0 -0.4,-0.1 -0.6,-0.2 -0.2,-0.2 -0.2,-0.3 -0.2,-0.6 v -10.3 c 0,-0.2 0.1,-0.4 0.2,-0.6 0.2,-0.1 0.3,-0.2 0.6,-0.2 0.2,0 0.4,0.1 0.6,0.2 0.1,0.1 0.2,0.3 0.2,0.6 v 4.4 h 7.1 v -4.4 c 0,-0.2 0.1,-0.4 0.2,-0.6 0.1,-0.2 0.3,-0.2 0.6,-0.2 0.2,0 0.4,0.1 0.6,0.2 0.1,0.1 0.2,0.3 0.2,0.6 v 10.3 c 0,0.2 -0.1,0.4 -0.2,0.6 -0.1,0.2 -0.3,0.2 -0.6,0.2 -0.2,0 -0.4,-0.1 -0.6,-0.2 -0.2,-0.2 -0.2,-0.3 -0.2,-0.6 v -4.5 h -7.1 v 4.5 c 0,0.2 -0.1,0.4 -0.2,0.6 -0.2,0.1 -0.4,0.2 -0.6,0.2 z"
             id="path1979"
             style="stroke-width:2.64022" />
          <path
             d="m 1050.8,180.2 c -0.7,0 -1.4,-0.2 -2,-0.6 -0.6,-0.4 -1.1,-0.9 -1.4,-1.5 -0.3,-0.6 -0.5,-1.4 -0.5,-2.2 0,-0.8 0.2,-1.5 0.6,-2.2 0.4,-0.6 0.9,-1.1 1.5,-1.5 0.6,-0.4 1.3,-0.6 2.1,-0.6 0.8,0 1.5,0.2 2.1,0.6 0.6,0.4 1.1,0.9 1.5,1.5 0.4,0.6 0.6,1.4 0.6,2.2 h -0.6 c 0,0.8 -0.2,1.5 -0.5,2.2 -0.3,0.6 -0.8,1.1 -1.4,1.5 -0.5,0.5 -1.2,0.6 -2,0.6 z m 0.4,-1.3 c 0.5,0 1,-0.1 1.4,-0.4 0.4,-0.2 0.7,-0.6 1,-1 0.3,-0.4 0.4,-0.9 0.4,-1.5 0,-0.5 -0.1,-1 -0.4,-1.5 -0.2,-0.4 -0.6,-0.8 -1,-1 -0.4,-0.2 -0.9,-0.4 -1.4,-0.4 -0.5,0 -1,0.1 -1.4,0.4 -0.4,0.3 -0.7,0.6 -1,1 -0.2,0.4 -0.4,0.9 -0.4,1.5 0,0.5 0.1,1 0.4,1.5 0.3,0.5 0.6,0.8 1,1 0.4,0.2 0.8,0.4 1.4,0.4 z m 3.4,1.3 c -0.2,0 -0.4,-0.1 -0.6,-0.2 -0.1,-0.1 -0.2,-0.3 -0.2,-0.6 v -2.3 l 0.3,-1.6 1.3,0.5 v 3.4 c 0,0.2 -0.1,0.4 -0.2,0.6 -0.2,0.1 -0.4,0.2 -0.6,0.2 z"
             id="path1981"
             style="stroke-width:2.64022" />
          <path
             d="m 1058.4,180.2 c -0.2,0 -0.4,-0.1 -0.6,-0.2 -0.1,-0.1 -0.2,-0.3 -0.2,-0.6 v -6.8 c 0,-0.2 0.1,-0.4 0.2,-0.6 0.1,-0.2 0.3,-0.2 0.6,-0.2 0.3,0 0.4,0.1 0.6,0.2 0.1,0.1 0.2,0.3 0.2,0.6 v 6.8 c 0,0.2 -0.1,0.4 -0.2,0.6 -0.1,0.2 -0.3,0.2 -0.6,0.2 z m 0,-5.2 c 0,-0.6 0.1,-1.2 0.4,-1.6 0.3,-0.4 0.7,-0.9 1.2,-1.1 0.5,-0.3 1.1,-0.4 1.7,-0.4 0.6,0 1.1,0.1 1.4,0.3 0.3,0.2 0.4,0.4 0.3,0.7 0,0.1 -0.1,0.3 -0.2,0.3 -0.1,0 -0.2,0.1 -0.3,0.1 -0.1,0 -0.2,0 -0.4,0 -0.6,-0.1 -1.2,-0.1 -1.8,0 -0.6,0.1 -0.9,0.3 -1.2,0.6 -0.3,0.3 -0.4,0.7 -0.4,1.2 h -0.7 z"
             id="path1983"
             style="stroke-width:2.64022" />
          <path
             d="m 1069.2,180.2 c -0.8,0 -1.5,-0.2 -2.1,-0.6 -0.6,-0.4 -1.1,-0.9 -1.5,-1.5 -0.4,-0.6 -0.6,-1.4 -0.6,-2.2 V 169 c 0,-0.2 0.1,-0.4 0.2,-0.6 0.1,-0.2 0.3,-0.2 0.6,-0.2 0.2,0 0.4,0.1 0.6,0.2 0.1,0.1 0.2,0.3 0.2,0.6 v 4.1 c 0.4,-0.4 0.8,-0.8 1.3,-1 0.5,-0.2 1.1,-0.4 1.7,-0.4 0.7,0 1.4,0.2 2,0.6 0.6,0.4 1.1,0.9 1.4,1.5 0.3,0.6 0.5,1.4 0.5,2.2 0,0.8 -0.2,1.5 -0.6,2.2 -0.4,0.7 -0.9,1.1 -1.5,1.5 -0.7,0.4 -1.4,0.5 -2.2,0.5 z m 0,-1.3 c 0.5,0 1,-0.1 1.4,-0.4 0.4,-0.2 0.7,-0.6 1,-1 0.3,-0.4 0.4,-0.9 0.4,-1.5 0,-0.5 -0.1,-1 -0.4,-1.5 -0.2,-0.4 -0.6,-0.8 -1,-1 -0.4,-0.2 -0.9,-0.4 -1.4,-0.4 -0.5,0 -1,0.1 -1.4,0.4 -0.4,0.2 -0.7,0.6 -1,1 -0.2,0.4 -0.3,0.9 -0.3,1.5 0,0.5 0.1,1 0.3,1.5 0.2,0.5 0.6,0.8 1,1 0.5,0.3 0.9,0.4 1.4,0.4 z"
             id="path1985"
             style="stroke-width:2.64022" />
          <path
             d="m 1079.5,180.2 c -0.8,0 -1.5,-0.2 -2.2,-0.5 -0.6,-0.4 -1.1,-0.9 -1.5,-1.5 -0.4,-0.6 -0.5,-1.4 -0.5,-2.2 0,-0.8 0.2,-1.6 0.5,-2.2 0.3,-0.6 0.9,-1.1 1.5,-1.5 0.6,-0.4 1.4,-0.5 2.2,-0.5 0.8,0 1.5,0.2 2.2,0.5 0.6,0.4 1.1,0.9 1.5,1.5 0.4,0.6 0.5,1.4 0.5,2.2 0,0.8 -0.2,1.5 -0.5,2.2 -0.3,0.7 -0.8,1.1 -1.5,1.5 -0.6,0.4 -1.4,0.5 -2.2,0.5 z m 0,-1.3 c 0.5,0 1,-0.1 1.4,-0.4 0.4,-0.2 0.7,-0.6 1,-1 0.2,-0.4 0.3,-0.9 0.3,-1.5 0,-0.6 -0.1,-1.1 -0.3,-1.5 -0.2,-0.4 -0.5,-0.8 -1,-1 -0.4,-0.2 -0.9,-0.4 -1.4,-0.4 -0.5,0 -1,0.1 -1.4,0.4 -0.4,0.2 -0.7,0.6 -1,1 -0.2,0.4 -0.3,0.9 -0.3,1.5 0,0.6 0.1,1 0.3,1.5 0.2,0.4 0.6,0.8 1,1 0.4,0.3 0.9,0.4 1.4,0.4 z"
             id="path1987"
             style="stroke-width:2.64022" />
          <path
             d="m 1086.8,180.2 c -0.2,0 -0.4,-0.1 -0.6,-0.2 -0.1,-0.1 -0.2,-0.3 -0.2,-0.6 v -6.8 c 0,-0.2 0.1,-0.4 0.2,-0.6 0.1,-0.2 0.3,-0.2 0.6,-0.2 0.3,0 0.4,0.1 0.6,0.2 0.1,0.1 0.2,0.3 0.2,0.6 v 6.8 c 0,0.2 -0.1,0.4 -0.2,0.6 -0.1,0.2 -0.4,0.2 -0.6,0.2 z m 0,-5.2 c 0,-0.6 0.1,-1.2 0.4,-1.6 0.3,-0.4 0.7,-0.9 1.2,-1.1 0.5,-0.3 1.1,-0.4 1.7,-0.4 0.6,0 1.1,0.1 1.4,0.3 0.3,0.2 0.4,0.4 0.3,0.7 0,0.1 -0.1,0.3 -0.2,0.3 -0.1,0 -0.2,0.1 -0.3,0.1 -0.1,0 -0.2,0 -0.4,0 -0.6,-0.1 -1.2,-0.1 -1.8,0 -0.6,0.1 -0.9,0.3 -1.2,0.6 -0.3,0.3 -0.4,0.7 -0.4,1.2 h -0.7 z"
             id="path1989"
             style="stroke-width:2.64022" />
        </g>
      </g>
      <rect
         x="570.40002"
         y="631.90002"
         class="st23"
         width="13.5"
         height="13.5"
         id="rect1995"
         style="fill:#38489e;stroke-width:2.64022" />
      <rect
         x="544.29999"
         y="392"
         class="st23"
         width="13.5"
         height="13.5"
         id="rect1999-7"
         style="fill:#38489e;stroke-width:2.64022" />
      <rect
         x="546.09998"
         y="254.89999"
         class="st23"
         width="13.5"
         height="13.5"
         id="rect2003"
         style="fill:#38489e;stroke-width:2.64022" />
      <rect
         x="185.8"
         y="516.90002"
         class="st23"
         width="13.5"
         height="13.5"
         id="rect2007"
         style="fill:#38489e;stroke-width:2.64022" />
    </g>
    <g
       inkscape:groupmode="layer"
       id="layer24"
       inkscape:label="text"
       style="display:inline"
       transform="translate(-18.327348,9.2634112)">
      <text
         class="st17 st7 st18"
         id="text2005"
         style="font-size:7.968px;font-family:HelveticaNeue-Medium;display:inline;fill:#231f20;stroke-width:1.81096"
         x="873.08234"
         y="886.03589">Bayam Harbor</text>
      <text
         class="st7 st18"
         id="text2001"
         style="font-size:7.968px;font-family:HelveticaNeue-Medium;display:inline;stroke-width:1.81096"
         x="1123.8176"
         y="707.53662">Rolls Harbor</text>
      <text
         class="st7 st8"
         id="text1905"
         style="font-size:14.4598px;font-family:HelveticaNeue-Medium;display:inline;stroke-width:1.81096"
         x="1169.0668"
         y="836.32629">Althea</text>
      <text
         class="st9 st10"
         id="text1907"
         style="font-size:10.897px;font-family:HelveticaNeue-LightItalic;display:inline;stroke-width:1.81096"
         x="1208"
         y="782.18494">Tingen City</text>
      <text
         class="st9 st10"
         id="text1910"
         style="font-size:10.897px;font-family:HelveticaNeue-LightItalic;display:inline;stroke-width:1.81096"
         x="1172.2882"
         y="951.33997">Seville City</text>
      <text
         class="st9 st10"
         id="text1913"
         style="font-size:10.897px;font-family:HelveticaNeue-LightItalic;display:inline;stroke-width:1.81096"
         x="1234.6565"
         y="701.87982">Beldone City</text>
      <text
         class="st9 st10"
         id="text1916"
         style="font-size:10.897px;font-family:HelveticaNeue-LightItalic;display:inline;stroke-width:1.81096"
         x="1155.1451"
         y="869.60565">Backlund City</text>
      <text
         class="st9 st11"
         id="text1918"
         style="font-size:7.51598px;font-family:HelveticaNeue-LightItalic;display:inline;stroke-width:1.81096"
         x="929.78467"
         y="736.62">(HQ of Church of Storm)</text>
      <text
         class="st12 st11"
         id="text1920"
         style="font-size:7.51598px;font-family:Impact;display:inline;stroke-width:1.81096"
         x="947.97919"
         y="728.28613">Chasm of Storm</text>
      <text
         class="st9 st11"
         id="text1928"
         style="font-size:7.51598px;font-family:HelveticaNeue-LightItalic;display:inline;stroke-width:1.81096"
         x="1354.074"
         y="824.28931">(HQ of Church of Evernight)</text>
      <text
         class="st12 st11"
         id="text1930"
         style="font-size:7.51598px;font-family:Impact;display:inline;stroke-width:1.81096"
         x="1369.9402"
         y="815.95551">Cathedral of Serenity</text>
      <text
         class="st9 st11"
         id="text1938"
         style="font-size:7.51598px;font-family:HelveticaNeue-LightItalic;display:inline;stroke-width:1.81096"
         x="1217.468"
         y="897.44171">(HQ of Church of Technology)</text>
      <text
         class="st12 st11"
         id="text1940"
         style="font-size:7.51598px;font-family:Impact;display:inline;stroke-width:1.81096"
         x="1231.1299"
         y="889.10791">Holy Numerics Cathedral</text>
      <text
         class="st9 st13"
         id="text1943"
         style="font-size:4.76793px;font-family:HelveticaNeue-LightItalic;display:inline;stroke-width:1.81096"
         x="969.26538"
         y="910.7207">Oofieland</text>
      <text
         class="st9 st14"
         id="text1946"
         style="font-size:7.33297px;font-family:HelveticaNeue-LightItalic;display:inline;stroke-width:1.81096"
         x="879.10071"
         y="913.57751">Bayam City</text>
      <text
         class="st17 st7 st18"
         id="text1997"
         style="font-size:7.968px;font-family:HelveticaNeue-Medium;display:inline;fill:#231f20;stroke-width:1.81096"
         x="1152.1036"
         y="810.84137">Pritz Harbor</text>
      <text
         class="st9 st10"
         id="text1949"
         style="font-size:10.897px;font-family:HelveticaNeue-LightItalic;display:inline;stroke-width:1.81096"
         x="1355.5636"
         y="888.10535">Constant City</text>
      <text
         class="st7 st15"
         id="text1951"
         style="font-size:13.8013px;font-family:HelveticaNeue-Medium;display:inline;stroke-width:1.81096"
         x="1322.651"
         y="719.6969">Winter County</text>
      <text
         class="st7 st15"
         id="text1951-2"
         style="font-style:normal;font-variant:normal;font-weight:normal;font-stretch:normal;font-size:13.8013px;font-family:HelveticaNeue-Medium;-inkscape-font-specification:'HelveticaNeue-Medium, ';font-variant-ligatures:normal;font-variant-caps:normal;font-variant-numeric:normal;font-variant-east-asian:normal;display:inline;stroke-width:1.81096"
         x="1363.4913"
         y="776.69312"><tspan
           sodipodi:role="line"
           id="tspan4"
           x="1363.4913"
           y="776.69312"
           style="font-style:normal;font-variant:normal;font-weight:normal;font-stretch:normal;font-size:13.8013px;font-family:HelveticaNeue-Medium;-inkscape-font-specification:'HelveticaNeue-Medium, ';font-variant-ligatures:normal;font-variant-caps:normal;font-variant-numeric:normal;font-variant-east-asian:normal;text-align:center;text-anchor:middle">East Chester</tspan><tspan
           sodipodi:role="line"
           id="tspan5"
           x="1363.4913"
           y="793.94476"
           style="font-style:normal;font-variant:normal;font-weight:normal;font-stretch:normal;font-size:13.8013px;font-family:HelveticaNeue-Medium;-inkscape-font-specification:'HelveticaNeue-Medium, ';font-variant-ligatures:normal;font-variant-caps:normal;font-variant-numeric:normal;font-variant-east-asian:normal;text-align:center;text-anchor:middle">County</tspan></text>
      <text
         class="st7 st15"
         id="text1959"
         style="font-size:13.8013px;font-family:HelveticaNeue-Medium;display:inline;stroke-width:1.81096"
         x="1316.9572"
         y="933.89203">Southville County</text>
      <text
         class="st7 st16"
         id="text1961"
         style="font-size:15.0432px;font-family:HelveticaNeue-Medium;display:inline;stroke-width:1.81096"
         x="1152.1033"
         y="933.89185">Desi County</text>
      <text
         class="st7 st16"
         id="text1961-8"
         style="font-size:15.0432px;font-family:HelveticaNeue-Medium;display:inline;stroke-width:1.81096"
         x="1200.6053"
         y="722.9281"><tspan
           sodipodi:role="line"
           id="tspan2"
           x="1200.6053"
           y="722.9281"
           style="font-style:normal;font-variant:normal;font-weight:normal;font-stretch:normal;font-size:15.0432px;font-family:Sans;-inkscape-font-specification:'Sans, ';font-variant-ligatures:normal;font-variant-caps:normal;font-variant-numeric:normal;font-variant-east-asian:normal;text-align:center;text-anchor:middle">Midseashire</tspan><tspan
           sodipodi:role="line"
           id="tspan3"
           x="1200.6053"
           y="741.73212"
           style="font-style:normal;font-variant:normal;font-weight:normal;font-stretch:normal;font-size:15.0432px;font-family:Sans;-inkscape-font-specification:'Sans, ';font-variant-ligatures:normal;font-variant-caps:normal;font-variant-numeric:normal;font-variant-east-asian:normal;text-align:center;text-anchor:middle">County</tspan></text>
      <text
         class="st17 st7 st18"
         id="text1963"
         style="font-size:7.968px;font-family:HelveticaNeue-Medium;display:inline;fill:#231f20;stroke-width:1.81096"
         x="1142.2704"
         y="986.1167">Oak Harbor</text>
      <text
         class="st7 st19"
         id="text1965"
         style="font-size:17.437px;font-family:HelveticaNeue-Medium;display:inline;stroke-width:2.52248"
         x="1236.6328"
         y="835.56146">Awwa County</text>
      <text
         class="st17 st7 st20"
         id="text1967"
         style="font-size:13.4021px;font-family:HelveticaNeue-Medium;display:inline;fill:#231f20;stroke-width:1.81096"
         x="875.44464"
         y="972.8349">Bayam Archipelago</text>
      <text
         class="st17 st7 st21"
         id="text1969"
         style="font-size:14.1728px;font-family:HelveticaNeue-Medium;display:inline;fill:#231f20;stroke-width:1.81096"
         x="933.10236"
         y="796.01971">Besu Cluster</text>
    </g>
  </g>
  <text
     xml:space="preserve"
     style="font-style:normal;font-weight:normal;font-size:10.5833px;line-height:1.25;font-family:sans-serif;fill:#000000;fill-opacity:1;stroke:none;stroke-width:0.264583"
     x="48.849781"
     y="13.38234"
     id="text1"><tspan
       sodipodi:role="line"
       id="tspan1"
       style="font-style:normal;font-variant:normal;font-weight:bold;font-stretch:condensed;font-size:10.5833px;font-family:'Helvetica Neue';-inkscape-font-specification:'Helvetica Neue, Bold Condensed';font-variant-ligatures:normal;font-variant-caps:normal;font-variant-numeric:normal;font-variant-east-asian:normal;stroke-width:0.264583"
       x="48.849781"
       y="13.38234">National Map of Estica</tspan></text>
</svg>
