<?xml version="1.0" encoding="UTF-8" standalone="no"?>
<!-- Created with Inkscape (http://www.inkscape.org/) -->

<svg
   width="726.41699"
   height="448.78201"
   viewBox="0 0 192.19782 118.74024"
   version="1.1"
   id="svg1"
   inkscape:version="1.3 (0e150ed6c4, 2023-07-21)"
   sodipodi:docname="Estica Map.svg"
   xmlns:inkscape="http://www.inkscape.org/namespaces/inkscape"
   xmlns:sodipodi="http://sodipodi.sourceforge.net/DTD/sodipodi-0.dtd"
   xmlns="http://www.w3.org/2000/svg"
   xmlns:svg="http://www.w3.org/2000/svg">
  <sodipodi:namedview
     id="namedview1"
     pagecolor="#ffffff"
     bordercolor="#a3a3a3"
     borderopacity="1"
     inkscape:showpageshadow="0"
     inkscape:pageopacity="0"
     inkscape:pagecheckerboard="0"
     inkscape:deskcolor="#333333"
     inkscape:document-units="px"
     inkscape:zoom="1.8242721"
     inkscape:cx="329.99464"
     inkscape:cy="225.84351"
     inkscape:window-width="1920"
     inkscape:window-height="991"
     inkscape:window-x="-9"
     inkscape:window-y="-9"
     inkscape:window-maximized="1"
     inkscape:current-layer="layer23" />
  <defs
     id="defs1" />
  <rect
     style="display:inline;fill:#c7e8ef;fill-opacity:1;stroke-width:0.331803"
     id="rect1"
     width="192.19783"
     height="118.74023"
     x="-1.4587702e-06"
     y="5.4397774e-06"
     inkscape:label="Background"
     sodipodi:insensitive="true" />
  <g
     inkscape:groupmode="layer"
     id="layer23"
     inkscape:label="Estica"
     style="display:inline"
     transform="matrix(0.26458333,0,0,0.26458333,-126.69433,-132.65987)">
    <g
       id="Estica_Only_No_colors"
       style="display:inline;fill:#f2ede7;fill-opacity:1;stroke-width:2.64022"
       transform="matrix(0.49163904,0,0,0.49163904,481.26095,459.2653)"
       inkscape:label="Border"
       sodipodi:insensitive="true">
      <g
         id="g1843"
         style="display:inline;fill:#f2ede7;fill-opacity:1;stroke-width:2.64022"
         inkscape:label="Mainland">
        <path
           id="path3130_00000087390446108071497490000014416613280489232520_"
           class="st3"
           d="m 517.5,260.3 5.5,18 12.5,3.8 -12.5,32.3 -13,-5.3 -9,-10.5 1.5,-18.8 z"
           style="fill:#f2ede7;fill-opacity:1;stroke:#000000;stroke-width:2.64022;stroke-linejoin:round" />
        <path
           id="path3132_00000180324590946815827820000016589592129771148441_"
           class="st3"
           d="m 493.5,258.9 -8.3,19.4 -5.3,1.5 -1.5,-14.3 z"
           style="fill:#f2ede7;fill-opacity:1;stroke:#000000;stroke-width:2.64022;stroke-linejoin:round" />
        <path
           id="path3134_00000045608639011160781930000014077106536315000729_"
           class="st3"
           d="m 536.9,339.1 v 13.5 l -13.9,3 -4.7,-15.8 4.7,-9 z"
           style="fill:#f2ede7;fill-opacity:1;stroke:#000000;stroke-width:2.64022;stroke-linejoin:round" />
        <path
           id="path3136_00000150786087587140336810000014111920677021283228_"
           class="st3"
           d="m 538.2,378.9 v 21 l -10.6,10.6 -27.9,-9 c 0,0 17.3,-10.5 17.3,-15.8 0,-5.3 -10.6,-9 0,-10.5 10.6,-1.5 21.2,3.7 21.2,3.7 z"
           style="fill:#f2ede7;fill-opacity:1;stroke:#000000;stroke-width:2.64022;stroke-linejoin:round" />
        <path
           id="path3138_00000036960792010657369260000009109920163565953169_"
           class="st3"
           d="m 539.5,433.1 -7.2,13 -4.8,10.8 v 22 l -13.6,-4.9 -4.5,-3.1 c 0,0 -3.7,-17.1 4.9,-16.2 8.6,0.9 13.2,-9.9 13.2,-9.9 z"
           style="fill:#f2ede7;fill-opacity:1;stroke:#000000;stroke-width:2.64022;stroke-linejoin:round" />
        <path
           id="path3140_00000152260941633886680280000013357853804443727275_"
           class="st3"
           d="m 524.1,426.3 -5.2,13.5 -11.6,4.5 -7.7,-7.6 c 0,0 -3.7,-21.6 5.3,-18 9,3.6 19.2,7.6 19.2,7.6 z"
           style="fill:#f2ede7;fill-opacity:1;stroke:#000000;stroke-width:2.64022;stroke-linejoin:round" />
        <path
           id="path3142_00000021823272962770903740000002850283200736581779_"
           class="st3"
           d="m 527.6,492.3 -2.1,14.4 -11,-0.9 -12.1,-6.3 v -9.4 z"
           style="fill:#f2ede7;fill-opacity:1;stroke:#000000;stroke-width:2.64022;stroke-linejoin:round" />
        <path
           id="path3144_00000029040176062029897430000015758897309405927839_"
           class="st3"
           d="M 536.9,529.2 519,518 c 0,0 -14.9,-7.6 -14.9,2.7 0,10.3 0,16.6 7.4,18.9 7.4,2.2 25.4,21.6 25.4,21.6 0,0 4,-0.4 4,-8.1 0,-7.7 -4,-23.9 -4,-23.9 z"
           style="fill:#f2ede7;fill-opacity:1;stroke:#000000;stroke-width:2.64022;stroke-linejoin:round" />
        <path
           id="path3146_00000165914261565030027510000011089076976029536644_"
           class="st3"
           d="m 511.5,556.1 7.4,9.9 5.2,3.6 7.8,4.9 4.5,12.1 -13.9,11.2 -7.5,-3.1 v -22.9 z"
           style="fill:#f2ede7;fill-opacity:1;stroke:#000000;stroke-width:2.64022;stroke-linejoin:round" />
        <path
           id="path3148_00000016067314999053925710000018072963116428791693_"
           class="st3"
           d="m 511.5,323.5 -4.2,9 -12.5,-6.7 z"
           style="fill:#f2ede7;fill-opacity:1;stroke:#000000;stroke-width:2.64022;stroke-linejoin:round" />
        <path
           id="path3150_00000016061841875298895890000017121847273399683746_"
           class="st3"
           d="m 522.5,614.5 -12.3,9.9 v 10.3 c 0,0 12.3,4.9 4.7,7.6 -7.6,2.7 -12.6,3.6 -17.3,3.6 -4.7,0 -8.3,-4.9 -5.6,-10.3 2.7,-5.4 18.2,-18.9 18.2,-18.9 z"
           style="fill:#f2ede7;fill-opacity:1;stroke:#000000;stroke-width:2.64022;stroke-linejoin:round" />
        <path
           id="path3152_00000095338389668370549360000017380535835437015733_"
           class="st3"
           d="m 506.7,608.7 -9.2,4.5 -7.9,7.2 v -12.6 l 4,-6.3 c 0,0 9,-15.3 9,-10.8 0.1,4.5 4.1,18 4.1,18 z"
           style="fill:#f2ede7;fill-opacity:1;stroke:#000000;stroke-width:2.64022;stroke-linejoin:round" />
        <path
           id="path3154_00000121962625204097183750000017960562472099349918_"
           class="st3"
           d="m 512.8,364.8 -9.7,8.8 v 8.8 l -4.8,4.5 -4.8,-0.4 c 0,0 -6.7,-6.1 -3.3,-9.4 3.3,-3.4 17.2,-17.5 17.2,-17.5 v 2.7 z"
           style="fill:#f2ede7;fill-opacity:1;stroke:#000000;stroke-width:2.64022;stroke-linejoin:round" />
        <path
           style="display:inline;fill:#f2ede7;fill-opacity:1;stroke:#000000;stroke-width:1;stroke-linejoin:round;stroke-dasharray:none"
           d="m 1451.7938,807.74661 -1.7866,-0.58168 -2.7422,0.58168 -2.6591,0.54013 -0.3324,-1.32955 c 0,0 -0.1662,-1.49574 0.083,-1.49574 0.2493,0 0.6648,-0.29084 1.4126,-0.29084 0.7479,0 1.4958,-0.99716 2.3683,-0.58168 0.8725,0.41548 1.745,0.54013 1.8697,0.70632 0.1246,0.1662 0.6648,0.20775 1.1633,0.66478 0.4986,0.45703 1.2049,0.74787 1.2049,0.74787 l 0.4571,1.12181 z"
           id="path1705"
           transform="matrix(2.6402126,0,0,2.6402126,-3317.1355,-1469.9758)" />
        <path
           id="path2402_00000085952140076821349490000009018836869742283178_"
           class="st3"
           d="m 997,621 c 0,-11.5 -1.1,-24 -2.1,-30.3 -1,-6.3 -8.6,-28.3 -3.1,-42.9 5.6,-14.7 -5.5,-4.2 6.3,-15.7 11.9,-11.5 0,0 -1,-24.1 -1,-24 -1,-16.7 -1,-16.7 l -9.7,-12.6 v -25.1 l 12.9,-27.2 c 0,0 -1.1,-21 3.1,-21 4.2,0 -16,-37.6 -16,-37.6 v -13.6 c 0,0 -14.3,-12.5 0,-20.9 14.4,-8.4 -14.3,-12.6 -14.3,-12.6 0,0 4.2,-18.8 -3.1,-18.8 -7.3,0 -9.4,-4.2 -9.4,-4.2 L 974.2,281 966.9,253.8 V 243 l 8.4,-6 11.2,-11.5 -16.5,-17.6 v 0 H 549.5 l -7.3,35.1 c 0,0 18.8,9.8 9.4,15 -9.4,5.2 6.3,13.6 6.3,13.6 0,0 -3.2,38.7 -12.6,47.1 -9.4,8.3 5.2,34.5 5.2,34.5 l 4.2,24.1 -3.1,28.2 6.3,30.4 -9.4,20.9 -10.5,19.9 1,28.2 c 0,0 6.2,25.2 14.6,39.8 8.4,14.6 -5.2,27.2 -5.2,27.2 0,0 0,2.1 -1,23 -1.1,20.9 -4.2,15.7 -4.2,15.7 l -18.8,15.7 4.2,20.9 7.03354,18.19311 8.14545,24.80017 4.2498,-2.1249 c 0,0 2.1249,23.21053 3.18735,26.65664 1.06245,3.44611 4.26601,10.88326 7.083,10.88326 2.81698,0 9.56205,2.8332 9.56205,2.8332 l 6.02055,4.60395 10.97865,7.43715 8.85375,19.8324 5.6664,13.4577 14.04767,19.87881 7.12382,5.68189 7.34164,4.35332 5.67355,4.30927 1.31985,11.10791 8.40807,6.72885 4.78188,11.48596 -2.32337,5.12173 -1.57674,17.73043 1.41283,10.06471 3.25238,9.22395 5.13092,11.11858 6.85015,13.98226 15.38531,31.96738 c 0,0 14.18858,2.633 15.60518,2.98715 1.4166,0.35415 7.7913,5.6664 13.10355,6.3747 5.31225,0.7083 10.62555,1.4166 13.4577,-0.35415 2.83216,-1.77075 11.74011,-10.6245 11.74011,-12.0411 0,-1.4166 7.73814,-15.22845 8.09229,-19.8324 0.35415,-4.60395 12.7494,-25.85295 14.52015,-27.6237 1.77075,-1.77075 12.39525,-10.97865 14.166,-15.22845 -0.12911,0.40706 4.37329,-10.84234 7.144,-10.84234 2.7707,0 12.12184,0 14.89255,0 2.7707,0 8.65845,-6.41386 8.65845,-6.41386 l 7.27311,-5.01761 c 0,0 23.20467,1.20789 31.17045,2.59324 7.96579,1.38536 11.56293,3.37306 15.1326,6.10564 3.56967,2.73259 7.3794,2.73259 10.1501,2.73259 2.77071,0 16.62425,9.86405 16.62425,9.86405 0,0 14.54621,-5.54142 15.93156,-5.19508 1.38535,0.34634 13.5072,-1.38535 14.54621,0.34634 1.03902,1.73169 4.78626,1.38535 7.58821,1.38535 2.80194,0 9.03603,-4.15606 9.03603,-4.15606 l 15.93157,-4.97719 c 0,0 6.23409,4.63085 8.31212,5.32353 2.07803,0.69268 9.35113,-7.27311 9.35113,-7.27311 0,0 9.57228,-6.7493 9.57228,-6.7493 0,0 5.66661,-6.41155 7.05197,-6.41155 1.38535,0 10.04381,-2.07803 13.50719,-2.07803 3.46339,0 15.23884,0.69267 16.97054,1.38535 1.7317,0.69268 9.6055,-2.42437 14.6734,-0.69268 5.0679,1.7317 16.1508,9.35114 20.3068,11.77551 4.1561,2.42437 0,20.08762 0.6927,21.47298 0.6927,1.38535 -6.5804,14.89255 -5.8878,20.08762 0.6927,5.19508 6.9268,18.35594 6.9268,18.35594 l 11.4292,7.96578 18.0096,18.00959 5.8877,7.27311 15.5852,6.58043 c 0,0 10.3902,5.54141 12.4682,6.23409 2.0781,0.69267 22.42,4.84873 22.42,5.19507 0,0.34634 11.8675,4.84874 13.2529,5.54142 1.3853,0.69267 17.3169,5.19507 17.3169,5.19507 0,0 6.9268,0 7.2731,-1.73169 0.3463,-1.73169 4.8487,-3.80972 4.8487,-3.80972 l -0.3463,-4.84874 -2.7707,-5.19507 c 0,0 -2.7707,-9.79771 -2.7707,-9.79771 l -1.039,-13.06063 -3.4634,-8.11179 c 0,0 -3.1171,-8.16611 -3.1171,-9.55146 0,-1.38536 -0.6926,-11.08283 0.6927,-11.08283 1.3854,0 -2.7707,-14.19987 -2.7707,-15.58523 0,-1.38535 1.039,-12.46818 1.039,-12.46818 l -0.3463,-13.50719 c 0,0 0.6927,-11.77551 2.078,-12.46819 1.3854,-0.69267 -2.7707,-12.46818 -2.7707,-12.46818 l -2.7707,-8.31212 c 0,0 -3.117,-7.96578 -3.8097,-9.35113 -0.6927,-1.38536 -2.4244,-12.12185 -3.4634,-13.85354 -1.039,-1.73169 -2.4244,-7.2731 -3.4634,-9.00479 -1.039,-1.7317 -2.4243,-4.5024 -2.4243,-8.31213 0,-3.80972 -0.6927,-10.39015 0.3463,-12.81452 1.039,-2.42436 4.5024,-9.00479 4.5024,-9.00479 l -3.1171,-11.42917 c 0,0 -5.5414,-3.11704 -5.195,-7.2731 0.3463,-4.15606 2.078,-3.11705 -1.3854,-5.88776 -3.4634,-2.7707 -4.5024,-4.5024 -5.8877,-6.92676 -1.3854,-2.42437 -10.7365,-12.12185 -10.7365,-12.12185 l -36.3656,-24.59002 -5.5414,-3.46338 -10.0438,-6.23409 -7.2731,-8.31213 -8.3121,-3.11704 -4.1561,2.07803 c 0,0 -6.2341,2.77071 -7.9658,2.42437 -1.7316,-0.34634 -4.5024,0.69267 -9.0047,-0.34634 -4.5024,-1.03902 -11.0829,-2.77071 -13.1609,-4.84874 -2.078,-2.07803 -7.6195,-5.54141 -6.2341,-7.96578 1.3854,-2.42437 5.5414,-3.46338 7.9658,-3.11704 2.4244,0.34633 -3.8097,-5.19508 -3.8097,-5.19508 l -4.8488,-4.5024 -3.4634,-2.77071 c 0,0 5.5415,-3.46338 5.8878,-5.19507 0.3463,-1.73169 2.078,-5.54142 3.117,-7.27311 1.0391,-1.73169 -4.7368,-1.99519 1.0391,-6.92676 5.7758,-4.93158 -5.1951,-4.84874 -5.1951,-4.84874 l -4.8488,-2.07803 z"
           style="display:inline;fill:#f2ede7;fill-opacity:1;stroke:#000000;stroke-width:2.64022;stroke-linejoin:round"
           sodipodi:nodetypes="cccccscccccccccsccccccccccsccccscccccccsc"
           inkscape:label="Mainland" />
      </g>
      <g
         id="g6641"
         inkscape:label="Bayam"
         style="display:inline;fill:#f2ede7;fill-opacity:1">
        <path
           id="path305_00000113316268395679169550000006408174531871800498_"
           class="st3"
           d="m 302,528.2 h 24.9 l 6.9,10.6 c 0,0 -8.1,5 -4.4,9.4 3.7,4.4 0.6,7 0.6,7 l -15,10.1 h -21.2 c 0,0 -10.8,-4.8 -6.6,-11.6 4.1,-6.8 0,-11.6 0,-11.6 l -1,-13.9 z"
           style="fill:#f2ede7;fill-opacity:1;stroke:#000000;stroke-width:2.64022;stroke-linejoin:round" />
        <polygon
           id="polygon307_00000141448338086009085440000014537155686514673587_"
           class="st3"
           points="313.5,512.3 308.3,507 285.2,496.3 277.1,504.5 283.8,514.6 293.9,521.3 302.1,513.2 "
           style="fill:#f2ede7;fill-opacity:1;stroke:#000000;stroke-width:2.64022;stroke-linejoin:round" />
        <path
           id="path309_00000064338758571346192460000002933356322209175698_"
           class="st3"
           d="m 232.8,524.1 7.9,-5.9 4.6,8.5 -4.6,7.3 c 0,0 -11.8,9.3 -11.3,0 0.5,-9.2 3.4,-9.9 3.4,-9.9 z"
           style="fill:#f2ede7;fill-opacity:1;stroke:#000000;stroke-width:2.64022;stroke-linejoin:round" />
        <polygon
           id="polygon311_00000114048676585739558870000009091653915115429561_"
           class="st3"
           points="275.2,572 266.4,578.5 270.8,584.9 277.7,582.1 282.7,576.2 278.9,572 "
           style="fill:#f2ede7;fill-opacity:1;stroke:#000000;stroke-width:2.64022;stroke-linejoin:round" />
        <path
           id="path313_00000174589972908020782790000008460851440487813010_"
           class="st3"
           d="m 264.5,599 11.1,6.4 7.5,-9.1 6.9,-4.5 5.3,5 11.2,-4.8 c 0,0 -3.6,-3.2 2.1,-8.2 5.7,-5 9.5,-9.7 9.5,-9.7 l 6.4,6.1 -9.5,15.8 c 0,0 -0.4,0.3 -7.7,5 -7.3,4.7 -26.5,12.7 -26.5,12.7 l -12.5,-2.3 -8.6,-1.2 -3.7,-5.6 c 0.2,-0.2 3.4,-5.9 8.5,-5.6 z"
           style="fill:#f2ede7;fill-opacity:1;stroke:#000000;stroke-width:2.64022;stroke-linejoin:round" />
        <path
           id="path315_00000111183782137655801340000010376114422346304946_"
           class="st3"
           d="m 254.2,535.8 c -3.3,7.5 4.5,8.7 4.5,8.7 l 11.4,-4.4 3.6,-11 -8.3,1.7 c 0,0 -8.3,-2.5 -8.3,-1.7 0,0.9 -2.9,6.7 -2.9,6.7 z"
           style="fill:#f2ede7;fill-opacity:1;stroke:#000000;stroke-width:2.64022;stroke-linejoin:round" />
        <path
           id="path317_00000038412605111375993830000012905134996679988883_"
           class="st3"
           d="m 246,557.9 c 4.2,7 8.3,9.1 8.3,9.1 l 3.3,-12.7 -9.2,-2.7 z"
           style="fill:#f2ede7;fill-opacity:1;stroke:#000000;stroke-width:2.64022;stroke-linejoin:round" />
        <path
           id="path319_00000049933528270390924180000001079089444385877892_"
           class="st3"
           d="m 196.2,528.2 c 0,0 16.7,-4.2 20.8,15.8 4.2,20 10.8,28.2 10.8,28.2 l -9.5,11.2 h -6.2 l -6.2,4 h -7.5 l -11.7,-10.6 -15.4,3.5 -2.9,-12.8 -7.9,-9.9 -3.5,-4.6 v -6.4 l 6.2,-9.8 c 0,0 -3.3,-6.9 2.5,-7.8 5.8,-0.9 8.7,-7.8 8.7,-7.8 h 14.5 l 3.3,7.8 z"
           style="fill:#f2ede7;fill-opacity:1;stroke:#000000;stroke-width:2.64022;stroke-linejoin:round" />
        <polygon
           id="polygon321_00000117673468540145259790000015838950029183181995_"
           class="st3"
           points="215.6,602.3 227.7,596 229.4,602.3 223.2,604.7 223.2,607.4 215.6,604.7 "
           style="fill:#f2ede7;fill-opacity:1;stroke:#000000;stroke-width:2.64022;stroke-linejoin:round" />
        <polygon
           id="polygon323_00000117636353872728218890000009242875545515620008_"
           class="st3"
           points="176.6,597.3 180.7,592.2 192.4,593.9 192.4,596 196.2,601.7 192.4,602.3 184,597.3 "
           style="fill:#f2ede7;fill-opacity:1;stroke:#000000;stroke-width:2.64022;stroke-linejoin:round" />
      </g>
      <g
         id="g1860"
         style="display:inline;fill:#f2ede7;fill-opacity:1;stroke-width:2.64022"
         inkscape:label="Besu cluster">
        <path
           id="path325_00000121246078035335634550000002486346223828509337_"
           class="st3"
           d="m 280.9,308.1 c 0,-2 7.7,-6.8 7.7,-6.8 l 8.9,-4.2 8.3,5.5 12.4,3.2 2.1,9.5 v 10 l -10.1,5.9 -7,1.3 -3.4,5.4 -11.2,-8.6 h -9.7 l -2.8,-9.5 v -9.5 z"
           style="fill:#f2ede7;fill-opacity:1;stroke:#000000;stroke-width:2.64022;stroke-linejoin:round" />
        <path
           id="path327_00000001656549749868161560000005086696649909944760_"
           class="st3"
           d="m 328.6,322.6 c 6.3,-2.2 6.3,0 6.3,0 0,0 -1.9,6.3 0,5.7 1.9,-0.5 5.7,0.1 5.7,0.1 l -1.9,6.4 c 0,0 -1.6,1.2 -3,0 -1.3,-1.2 -7.1,-3.7 -7.1,-3.7 l -4.1,-2.6 z"
           style="fill:#f2ede7;fill-opacity:1;stroke:#000000;stroke-width:2.64022;stroke-linejoin:round" />
        <polygon
           id="polygon329_00000061442396654131392720000015715780582609142950_"
           class="st3"
           points="283.7,336.2 287.3,341.2 291.1,347 287.3,351.2 281.9,349.4 276.4,338.4 "
           style="fill:#f2ede7;fill-opacity:1;stroke:#000000;stroke-width:2.64022;stroke-linejoin:round" />
        <polygon
           id="polygon331_00000019643255592713034810000008170372094075367079_"
           class="st3"
           points="257,351.6 260.9,356.5 268.9,351.6 264.9,347.4 257,343.1 "
           style="fill:#f2ede7;fill-opacity:1;stroke:#000000;stroke-width:2.64022;stroke-linejoin:round" />
        <path
           id="path333_00000018935807111219989280000009169918847853894569_"
           class="st3"
           d="m 259.2,329.5 3.4,5.6 c 0,0 5.9,-4.3 6.2,-5.6 0.3,-1.3 -2.3,-7.7 -2.3,-7.7 l -6,2.1 -3.5,4.5 z"
           style="fill:#f2ede7;fill-opacity:1;stroke:#000000;stroke-width:2.64022;stroke-linejoin:round" />
      </g>
    </g>
    <g
       id="Icons_Black"
       style="display:none;stroke-width:2.64022"
       inkscape:label="icons"
       transform="matrix(0.37875738,0,0,0.37875738,890.87984,567.14798)"
       sodipodi:insensitive="true">
      <polygon
         id="polygon390_00000065753685581829470360000004153974104017355922_"
         class="st4"
         points="1008.4,84.6 1012,77.3 1015.5,84.6 1023.6,85.8 1017.8,91.4 1019.1,99.4 1012,95.6 1004.8,99.4 1006.2,91.4 1000.4,85.8 "
         style="fill:#f9e63d;stroke-width:2.64022" />
      <g
         id="g394_00000023976153243748684810000002447054468812133566_"
         style="stroke-width:2.64022">
        <rect
           id="rect390_00000177462964302796848380000013840331324506617235_"
           x="1008.8"
           y="114.1"
           transform="matrix(0.7071,-0.7071,0.7071,0.7071,213.5457,749.8704)"
           class="st5"
           width="6.1999998"
           height="6.1999998"
           style="fill:#f7e770;stroke-width:2.64022" />
        <rect
           id="rect391_00000178899645866547897630000013646642648439081095_"
           x="1000.2"
           y="114.1"
           transform="matrix(0.7071,-0.7071,0.7071,0.7071,210.9722,743.7894)"
           class="st5"
           width="6.1999998"
           height="6.1999998"
           style="fill:#f7e770;stroke-width:2.64022" />
        <rect
           id="rect392_00000098923672340750900360000008557074128108868268_"
           x="1008.8"
           y="122.8"
           transform="matrix(0.7071,-0.7071,0.7071,0.7071,207.394,752.4147)"
           class="st5"
           width="6.1999998"
           height="6.1999998"
           style="fill:#f7e770;stroke-width:2.64022" />
        <rect
           id="rect393_00000168101215541242334350000000140865533214879158_"
           x="1017.5"
           y="114.1"
           transform="matrix(0.7071,-0.7071,0.7071,0.7071,216.0899,756.0222)"
           class="st5"
           width="6.1999998"
           height="6.1999998"
           style="fill:#f7e770;stroke-width:2.64022" />
        <rect
           id="rect394_00000113319966659622599810000013280108317437775792_"
           x="1008.9"
           y="105.4"
           transform="matrix(0.7071,-0.7071,0.7071,0.7071,219.6974,747.3262)"
           class="st5"
           width="6.1999998"
           height="6.1999998"
           style="fill:#f7e770;stroke-width:2.64022" />
      </g>
      <circle
         id="circle394_00000044153094379379727130000018438541994595118740_"
         class="st6"
         cx="1012"
         cy="146"
         r="9.5"
         style="fill:#e31c49;stroke-width:2.64022" />
      <g
         id="g401_00000104673994987489331910000002081126907938383000_"
         style="stroke-width:2.64022">
        <g
           id="g400_00000125566678074662298170000006679528075684782501_"
           style="stroke-width:2.64022">
          <path
             id="path394_00000165200316088442719410000001378238906612009127_"
             d="m 1037.8,96.4 c -0.8,0 -1.5,-0.1 -2.2,-0.4 -0.7,-0.3 -1.3,-0.7 -1.8,-1.2 -0.5,-0.5 -0.9,-1.2 -1.2,-1.9 -0.3,-0.7 -0.4,-1.5 -0.4,-2.3 0,-0.8 0.1,-1.6 0.4,-2.3 0.3,-0.7 0.7,-1.3 1.2,-1.9 0.5,-0.5 1.1,-1 1.8,-1.3 0.7,-0.3 1.4,-0.5 2.2,-0.5 0.8,0 1.4,0.1 1.9,0.3 0.5,0.2 1.1,0.5 1.6,1 0.1,0.1 0.1,0.1 0.2,0.2 0,0.1 0.1,0.1 0.1,0.2 0,0.1 0,0.1 0,0.2 0,0.2 -0.1,0.3 -0.2,0.5 -0.1,0.1 -0.3,0.2 -0.5,0.2 -0.2,0 -0.4,0 -0.5,-0.2 -0.4,-0.3 -0.7,-0.6 -1.1,-0.7 -0.4,-0.2 -0.9,-0.2 -1.5,-0.2 -0.6,0 -1.1,0.1 -1.6,0.4 -0.5,0.2 -1,0.6 -1.3,1 -0.4,0.4 -0.7,0.9 -0.9,1.4 -0.2,0.5 -0.3,1.1 -0.3,1.7 0,0.6 0.1,1.2 0.3,1.8 0.2,0.6 0.5,1 0.9,1.4 0.4,0.4 0.8,0.7 1.3,1 0.5,0.2 1.1,0.3 1.6,0.3 0.5,0 1,-0.1 1.4,-0.3 0.4,-0.2 0.9,-0.4 1.3,-0.7 0.2,-0.1 0.4,-0.2 0.5,-0.2 0.2,0 0.3,0.1 0.4,0.2 0.1,0.1 0.2,0.3 0.2,0.5 0,0.1 0,0.2 -0.1,0.3 0,0.1 -0.1,0.2 -0.2,0.3 -0.5,0.4 -1.1,0.7 -1.7,1 -0.5,0.1 -1.2,0.2 -1.8,0.2 z"
             style="stroke-width:2.64022" />
          <path
             id="path395_00000022530737515337608620000003884071246661394877_"
             d="m 1047.2,96.3 c -0.7,0 -1.4,-0.2 -1.9,-0.5 -0.6,-0.4 -1,-0.8 -1.3,-1.5 -0.3,-0.6 -0.5,-1.3 -0.5,-2.1 0,-0.8 0.2,-1.5 0.5,-2.1 0.3,-0.6 0.8,-1.1 1.5,-1.5 0.7,-0.4 1.3,-0.5 2.1,-0.5 0.8,0 1.4,0.2 2.1,0.5 0.7,0.3 1.1,0.8 1.4,1.5 0.3,0.7 0.5,1.3 0.5,2.1 h -0.6 c 0,0.8 -0.2,1.5 -0.5,2.1 -0.3,0.6 -0.8,1.1 -1.3,1.5 -0.6,0.3 -1.2,0.5 -2,0.5 z m 0.3,-1.3 c 0.5,0 0.9,-0.1 1.3,-0.4 0.4,-0.2 0.7,-0.6 0.9,-1 0.2,-0.4 0.3,-0.9 0.3,-1.4 0,-0.5 -0.1,-1 -0.3,-1.4 -0.2,-0.4 -0.5,-0.7 -0.9,-1 -0.4,-0.2 -0.8,-0.4 -1.3,-0.4 -0.5,0 -0.9,0.1 -1.3,0.4 -0.4,0.2 -0.7,0.6 -0.9,1 -0.2,0.4 -0.3,0.9 -0.3,1.4 0,0.5 0.1,1 0.3,1.4 0.2,0.4 0.5,0.7 0.9,1 0.4,0.2 0.8,0.4 1.3,0.4 z m 3.3,1.2 c -0.2,0 -0.4,-0.1 -0.5,-0.2 -0.1,-0.1 -0.2,-0.3 -0.2,-0.5 v -2.2 l 0.3,-1.6 1.2,0.5 v 3.3 c 0,0.2 -0.1,0.4 -0.2,0.5 -0.1,0.1 -0.4,0.2 -0.6,0.2 z"
             style="stroke-width:2.64022" />
          <path
             id="path396_00000082337430640415002640000012305944337766712491_"
             d="m 1054.6,99.7 c -0.2,0 -0.4,-0.1 -0.5,-0.2 -0.1,-0.1 -0.2,-0.3 -0.2,-0.5 v -6.7 c 0,-0.8 0.2,-1.5 0.5,-2.1 0.4,-0.6 0.8,-1.1 1.4,-1.5 0.6,-0.4 1.3,-0.5 2.1,-0.5 0.8,0 1.5,0.2 2.1,0.5 0.6,0.4 1.1,0.8 1.4,1.5 0.4,0.6 0.5,1.3 0.5,2.1 0,0.8 -0.2,1.5 -0.5,2.1 -0.3,0.6 -0.8,1.1 -1.3,1.5 -0.6,0.4 -1.2,0.5 -1.9,0.5 -0.6,0 -1.1,-0.1 -1.6,-0.4 -0.5,-0.2 -0.9,-0.6 -1.2,-1 v 4 c 0,0.2 -0.1,0.4 -0.2,0.5 -0.1,0.1 -0.4,0.2 -0.6,0.2 z m 3.3,-4.7 c 0.5,0 0.9,-0.1 1.3,-0.4 0.4,-0.2 0.7,-0.6 0.9,-1 0.2,-0.4 0.3,-0.9 0.3,-1.4 0,-0.5 -0.1,-1 -0.3,-1.4 -0.2,-0.4 -0.5,-0.7 -0.9,-1 -0.4,-0.2 -0.8,-0.4 -1.3,-0.4 -0.5,0 -0.9,0.1 -1.3,0.4 -0.4,0.2 -0.7,0.6 -0.9,1 -0.2,0.4 -0.3,0.9 -0.3,1.4 0,0.5 0.1,1 0.3,1.4 0.2,0.4 0.5,0.7 0.9,1 0.3,0.2 0.8,0.4 1.3,0.4 z"
             style="stroke-width:2.64022" />
          <path
             id="path397_00000056405522639824741520000008700667160247571357_"
             d="m 1065,86.9 c -0.3,0 -0.5,-0.1 -0.7,-0.3 -0.2,-0.2 -0.3,-0.4 -0.3,-0.7 0,-0.3 0.1,-0.5 0.3,-0.7 0.2,-0.2 0.4,-0.3 0.7,-0.3 0.3,0 0.5,0.1 0.7,0.3 0.2,0.2 0.3,0.4 0.3,0.7 0,0.3 -0.1,0.5 -0.3,0.7 -0.2,0.2 -0.4,0.3 -0.7,0.3 z m 0,9.3 c -0.2,0 -0.4,-0.1 -0.5,-0.2 -0.1,-0.1 -0.2,-0.3 -0.2,-0.5 V 89 c 0,-0.2 0.1,-0.4 0.2,-0.5 0.1,-0.1 0.3,-0.2 0.5,-0.2 0.2,0 0.4,0.1 0.5,0.2 0.1,0.1 0.2,0.3 0.2,0.5 v 6.5 c 0,0.2 -0.1,0.4 -0.2,0.5 -0.1,0.1 -0.2,0.2 -0.5,0.2 z"
             style="stroke-width:2.64022" />
          <path
             id="path398_00000144305197688295234310000015343140058058000269_"
             d="m 1068.2,89.7 c -0.2,0 -0.4,-0.1 -0.5,-0.2 -0.1,-0.1 -0.2,-0.3 -0.2,-0.4 0,-0.2 0.1,-0.4 0.2,-0.5 0.1,-0.1 0.3,-0.2 0.5,-0.2 h 3.4 c 0.2,0 0.4,0.1 0.5,0.2 0.2,0.2 0.2,0.3 0.2,0.5 0,0.2 -0.1,0.3 -0.2,0.4 -0.1,0.1 -0.3,0.2 -0.5,0.2 z m 3.3,6.5 c -0.5,0 -0.9,-0.1 -1.3,-0.4 -0.4,-0.2 -0.7,-0.6 -0.9,-1 -0.2,-0.4 -0.3,-0.9 -0.3,-1.5 v -7 c 0,-0.2 0.1,-0.4 0.2,-0.5 0.1,-0.1 0.3,-0.2 0.5,-0.2 0.2,0 0.4,0.1 0.5,0.2 0.1,0.1 0.2,0.3 0.2,0.5 v 7 c 0,0.4 0.1,0.7 0.3,1 0.2,0.3 0.5,0.4 0.8,0.4 h 0.5 c 0.2,0 0.3,0.1 0.4,0.2 0.1,0.1 0.2,0.3 0.2,0.5 0,0.2 -0.1,0.4 -0.2,0.5 -0.1,0.1 -0.4,0.2 -0.6,0.2 z"
             style="stroke-width:2.64022" />
          <path
             id="path399_00000085939936590734589860000007230049990268005559_"
             d="m 1077.8,96.3 c -0.7,0 -1.4,-0.2 -1.9,-0.5 -0.6,-0.4 -1,-0.8 -1.3,-1.5 -0.3,-0.6 -0.5,-1.3 -0.5,-2.1 0,-0.8 0.2,-1.5 0.5,-2.1 0.3,-0.6 0.8,-1.1 1.5,-1.5 0.7,-0.4 1.3,-0.5 2.1,-0.5 0.8,0 1.4,0.2 2.1,0.5 0.7,0.3 1.1,0.8 1.4,1.5 0.3,0.7 0.5,1.3 0.5,2.1 h -0.6 c 0,0.8 -0.2,1.5 -0.5,2.1 -0.3,0.6 -0.8,1.1 -1.3,1.5 -0.6,0.3 -1.3,0.5 -2,0.5 z m 0.3,-1.3 c 0.5,0 0.9,-0.1 1.3,-0.4 0.4,-0.2 0.7,-0.6 0.9,-1 0.2,-0.4 0.3,-0.9 0.3,-1.4 0,-0.5 -0.1,-1 -0.3,-1.4 -0.2,-0.4 -0.5,-0.7 -0.9,-1 -0.4,-0.2 -0.8,-0.4 -1.3,-0.4 -0.5,0 -0.9,0.1 -1.3,0.4 -0.4,0.2 -0.7,0.6 -0.9,1 -0.2,0.4 -0.3,0.9 -0.3,1.4 0,0.5 0.1,1 0.3,1.4 0.2,0.4 0.5,0.7 0.9,1 0.4,0.2 0.8,0.4 1.3,0.4 z m 3.3,1.2 c -0.2,0 -0.4,-0.1 -0.5,-0.2 -0.1,-0.1 -0.2,-0.3 -0.2,-0.5 v -2.2 l 0.3,-1.6 1.2,0.5 v 3.3 c 0,0.2 -0.1,0.4 -0.2,0.5 -0.1,0.1 -0.4,0.2 -0.6,0.2 z"
             style="stroke-width:2.64022" />
          <path
             id="path400_00000165922148818226104760000018295938559664497797_"
             d="m 1086.3,96.2 c -0.4,0 -0.8,-0.1 -1.1,-0.4 -0.3,-0.2 -0.6,-0.6 -0.8,-1 -0.2,-0.4 -0.3,-0.9 -0.3,-1.4 v -8 c 0,-0.2 0.1,-0.4 0.2,-0.5 0.1,-0.1 0.3,-0.2 0.5,-0.2 0.2,0 0.4,0.1 0.5,0.2 0.1,0.1 0.2,0.3 0.2,0.5 v 8 c 0,0.4 0.1,0.7 0.2,0.9 0.1,0.2 0.3,0.4 0.5,0.4 h 0.4 c 0.2,0 0.4,0.1 0.5,0.2 0.1,0.1 0.2,0.3 0.2,0.5 0,0.2 -0.1,0.4 -0.3,0.5 -0.2,0.1 -0.4,0.3 -0.7,0.3 z"
             style="stroke-width:2.64022" />
        </g>
      </g>
      <g
         id="g409_00000155836712223736798410000003740511871833849791_"
         style="stroke-width:2.64022">
        <g
           id="g408_00000158725633334744560250000002226489637582681770_"
           style="stroke-width:2.64022">
          <path
             id="path401_00000059306110492035708810000002761871007187279807_"
             d="m 1038.6,125.9 c -0.8,0 -1.5,-0.1 -2.2,-0.4 -0.7,-0.3 -1.3,-0.7 -1.8,-1.2 -0.5,-0.5 -0.9,-1.2 -1.2,-1.9 -0.3,-0.7 -0.4,-1.5 -0.4,-2.3 0,-0.8 0.1,-1.6 0.4,-2.3 0.3,-0.7 0.7,-1.3 1.2,-1.9 0.5,-0.5 1.1,-1 1.8,-1.3 0.7,-0.3 1.4,-0.5 2.2,-0.5 0.8,0 1.4,0.1 1.9,0.3 0.5,0.2 1.1,0.5 1.6,1 0.1,0.1 0.1,0.1 0.2,0.2 0,0.1 0.1,0.1 0.1,0.2 0,0.1 0,0.1 0,0.2 0,0.2 -0.1,0.3 -0.2,0.5 -0.1,0.1 -0.3,0.2 -0.5,0.2 -0.2,0 -0.4,0 -0.5,-0.2 -0.4,-0.3 -0.7,-0.6 -1.1,-0.7 -0.4,-0.2 -0.9,-0.2 -1.5,-0.2 -0.6,0 -1.1,0.1 -1.6,0.4 -0.5,0.2 -1,0.6 -1.3,1 -0.4,0.4 -0.7,0.9 -0.9,1.4 -0.2,0.5 -0.3,1.1 -0.3,1.7 0,0.6 0.1,1.2 0.3,1.8 0.2,0.6 0.5,1 0.9,1.4 0.4,0.4 0.8,0.7 1.3,1 0.5,0.2 1.1,0.3 1.6,0.3 0.5,0 1,-0.1 1.4,-0.3 0.4,-0.2 0.9,-0.4 1.3,-0.7 0.2,-0.1 0.4,-0.2 0.5,-0.2 0.2,0 0.3,0.1 0.4,0.2 0.1,0.1 0.2,0.3 0.2,0.5 0,0.1 0,0.2 -0.1,0.3 0,0.1 -0.1,0.2 -0.2,0.3 -0.5,0.4 -1.1,0.7 -1.7,1 -0.5,0.1 -1.1,0.2 -1.8,0.2 z"
             style="stroke-width:2.64022" />
          <path
             id="path402_00000138543495257686916260000016974943086474907551_"
             d="m 1045.5,122.9 c -0.2,0 -0.4,-0.1 -0.5,-0.2 -0.1,-0.1 -0.2,-0.3 -0.2,-0.5 v -7.1 c 0,-0.2 0.1,-0.4 0.2,-0.5 0.1,-0.1 0.3,-0.2 0.5,-0.2 0.2,0 0.4,0.1 0.5,0.2 0.1,0.1 0.2,0.3 0.2,0.5 v 7 c 0,0.2 -0.1,0.4 -0.2,0.5 -0.1,0.2 -0.3,0.3 -0.5,0.3 z m 0,2.9 c -0.2,0 -0.4,-0.1 -0.5,-0.2 -0.1,-0.1 -0.2,-0.3 -0.2,-0.5 v -6.6 c 0,-0.2 0.1,-0.4 0.2,-0.5 0.1,-0.1 0.3,-0.2 0.5,-0.2 0.2,0 0.4,0.1 0.5,0.2 0.1,0.1 0.2,0.3 0.2,0.5 v 6.6 c 0,0.2 -0.1,0.4 -0.2,0.5 -0.1,0.1 -0.3,0.2 -0.5,0.2 z m 6.1,0 c -0.2,0 -0.4,-0.1 -0.5,-0.2 -0.1,-0.1 -0.2,-0.3 -0.2,-0.5 v -3.6 c 0,-0.6 -0.1,-1 -0.3,-1.4 -0.2,-0.4 -0.5,-0.6 -0.8,-0.8 -0.3,-0.2 -0.7,-0.3 -1.2,-0.3 -0.4,0 -0.8,0.1 -1.1,0.2 -0.3,0.2 -0.6,0.4 -0.8,0.7 -0.2,0.3 -0.3,0.6 -0.3,1 h -0.9 c 0,-0.6 0.1,-1.2 0.4,-1.7 0.3,-0.5 0.7,-0.9 1.2,-1.2 0.5,-0.3 1.1,-0.4 1.7,-0.4 0.7,0 1.3,0.1 1.8,0.4 0.5,0.3 1,0.7 1.3,1.3 0.3,0.6 0.5,1.2 0.5,2.1 v 3.6 c 0,0.2 -0.1,0.4 -0.2,0.5 -0.1,0.1 -0.4,0.3 -0.6,0.3 z"
             style="stroke-width:2.64022" />
          <path
             id="path403_00000020395993607210085870000015757276399965362085_"
             d="m 1058.2,125.9 c -0.7,0 -1.3,-0.1 -1.8,-0.4 -0.5,-0.3 -1,-0.7 -1.3,-1.3 -0.3,-0.6 -0.5,-1.2 -0.5,-2.1 v -3.6 c 0,-0.2 0.1,-0.4 0.2,-0.5 0.1,-0.1 0.3,-0.2 0.5,-0.2 0.2,0 0.4,0.1 0.5,0.2 0.1,0.1 0.2,0.3 0.2,0.5 v 3.6 c 0,0.5 0.1,1 0.3,1.4 0.2,0.4 0.5,0.6 0.8,0.8 0.4,0.2 0.7,0.3 1.2,0.3 0.4,0 0.8,-0.1 1.1,-0.2 0.3,-0.2 0.6,-0.4 0.8,-0.7 0.2,-0.3 0.3,-0.6 0.3,-1 h 0.9 c 0,0.6 -0.1,1.2 -0.4,1.6 -0.3,0.4 -0.7,0.9 -1.2,1.2 -0.4,0.2 -1,0.4 -1.6,0.4 z m 3.2,-0.1 c -0.2,0 -0.4,-0.1 -0.5,-0.2 -0.1,-0.1 -0.2,-0.4 -0.2,-0.6 v -6.6 c 0,-0.2 0.1,-0.4 0.2,-0.5 0.1,-0.1 0.3,-0.2 0.5,-0.2 0.2,0 0.4,0.1 0.5,0.2 0.1,0.1 0.2,0.3 0.2,0.5 v 6.6 c 0,0.2 -0.1,0.4 -0.2,0.5 -0.1,0.1 -0.2,0.3 -0.5,0.3 z"
             style="stroke-width:2.64022" />
          <path
             id="path404_00000080899985528117204720000006971486037560021666_"
             d="m 1065.6,125.8 c -0.2,0 -0.4,-0.1 -0.5,-0.2 -0.1,-0.1 -0.2,-0.3 -0.2,-0.6 v -6.6 c 0,-0.2 0.1,-0.4 0.2,-0.5 0.1,-0.1 0.3,-0.2 0.5,-0.2 0.2,0 0.4,0.1 0.6,0.2 0.2,0.1 0.2,0.3 0.2,0.6 v 6.6 c 0,0.2 -0.1,0.4 -0.2,0.5 -0.1,0.1 -0.4,0.2 -0.6,0.2 z m -0.1,-5 c 0,-0.6 0.1,-1.1 0.4,-1.6 0.3,-0.5 0.7,-0.8 1.2,-1.1 0.5,-0.3 1,-0.4 1.6,-0.4 0.6,0 1,0.1 1.3,0.3 0.3,0.2 0.4,0.4 0.3,0.7 0,0.1 -0.1,0.2 -0.2,0.3 -0.1,0.1 -0.2,0.1 -0.3,0.1 -0.1,0 -0.2,0 -0.4,0 -0.6,-0.1 -1.2,-0.1 -1.7,0 -0.5,0.1 -0.9,0.3 -1.2,0.6 -0.3,0.3 -0.4,0.7 -0.4,1.1 z"
             style="stroke-width:2.64022" />
          <path
             id="path405_00000121962468548116775410000010132329813270432128_"
             d="m 1075.6,125.8 c -0.8,0 -1.5,-0.2 -2.1,-0.5 -0.6,-0.4 -1.1,-0.8 -1.4,-1.5 -0.3,-0.7 -0.5,-1.3 -0.5,-2.1 0,-0.8 0.2,-1.5 0.5,-2.1 0.3,-0.6 0.8,-1.1 1.4,-1.4 0.6,-0.3 1.3,-0.5 2.1,-0.5 0.6,0 1.1,0.1 1.6,0.3 0.5,0.2 0.9,0.6 1.3,1 0.1,0.2 0.2,0.3 0.1,0.5 0,0.2 -0.1,0.3 -0.3,0.4 -0.1,0.1 -0.3,0.1 -0.5,0.1 -0.2,0 -0.3,-0.1 -0.5,-0.3 -0.5,-0.5 -1.1,-0.8 -1.8,-0.8 -0.5,0 -0.9,0.1 -1.3,0.3 -0.4,0.2 -0.7,0.6 -0.9,1 -0.2,0.4 -0.3,0.9 -0.3,1.5 0,0.5 0.1,1 0.3,1.4 0.2,0.4 0.5,0.7 0.9,1 0.4,0.2 0.8,0.4 1.4,0.4 0.3,0 0.6,0 0.9,-0.1 0.3,-0.1 0.5,-0.2 0.7,-0.4 0.2,-0.1 0.3,-0.2 0.5,-0.2 0.2,0 0.3,0 0.4,0.1 0.2,0.1 0.3,0.3 0.3,0.5 0,0.2 0,0.3 -0.2,0.5 -0.7,0.6 -1.5,0.9 -2.6,0.9 z"
             style="stroke-width:2.64022" />
          <path
             id="path406_00000133506692045381835780000009900185074783669634_"
             d="m 1081.5,122.9 c -0.2,0 -0.4,-0.1 -0.5,-0.2 -0.1,-0.1 -0.2,-0.3 -0.2,-0.5 v -7.1 c 0,-0.2 0.1,-0.4 0.2,-0.5 0.1,-0.1 0.3,-0.2 0.5,-0.2 0.2,0 0.4,0.1 0.5,0.2 0.1,0.1 0.2,0.3 0.2,0.5 v 7 c 0,0.2 -0.1,0.4 -0.2,0.5 -0.1,0.2 -0.2,0.3 -0.5,0.3 z m 0,2.9 c -0.2,0 -0.4,-0.1 -0.5,-0.2 -0.1,-0.1 -0.2,-0.3 -0.2,-0.5 v -6.6 c 0,-0.2 0.1,-0.4 0.2,-0.5 0.1,-0.1 0.3,-0.2 0.5,-0.2 0.2,0 0.4,0.1 0.5,0.2 0.1,0.1 0.2,0.3 0.2,0.5 v 6.6 c 0,0.2 -0.1,0.4 -0.2,0.5 -0.1,0.1 -0.2,0.2 -0.5,0.2 z m 6.1,0 c -0.2,0 -0.4,-0.1 -0.5,-0.2 -0.1,-0.1 -0.2,-0.3 -0.2,-0.5 v -3.6 c 0,-0.6 -0.1,-1 -0.3,-1.4 -0.2,-0.4 -0.5,-0.6 -0.8,-0.8 -0.3,-0.2 -0.7,-0.3 -1.2,-0.3 -0.4,0 -0.8,0.1 -1.1,0.2 -0.3,0.2 -0.6,0.4 -0.8,0.7 -0.2,0.3 -0.3,0.6 -0.3,1 h -0.9 c 0,-0.6 0.1,-1.2 0.4,-1.7 0.3,-0.5 0.7,-0.9 1.2,-1.2 0.5,-0.3 1.1,-0.4 1.7,-0.4 0.7,0 1.3,0.1 1.8,0.4 0.5,0.3 1,0.7 1.3,1.3 0.3,0.6 0.5,1.2 0.5,2.1 v 3.6 c 0,0.2 -0.1,0.4 -0.2,0.5 -0.1,0.1 -0.4,0.3 -0.6,0.3 z"
             style="stroke-width:2.64022" />
          <path
             id="path407_00000145771111602301980150000017808970162172453760_"
             d="m 1096,125.8 c -0.2,0 -0.4,-0.1 -0.5,-0.2 -0.1,-0.1 -0.2,-0.3 -0.2,-0.5 v -10 c 0,-0.2 0.1,-0.4 0.2,-0.6 0.1,-0.1 0.3,-0.2 0.5,-0.2 0.2,0 0.4,0.1 0.6,0.2 0.1,0.1 0.2,0.3 0.2,0.6 v 4.2 h 6.8 v -4.2 c 0,-0.2 0.1,-0.4 0.2,-0.6 0.1,-0.1 0.3,-0.2 0.5,-0.2 0.2,0 0.4,0.1 0.5,0.2 0.1,0.1 0.2,0.3 0.2,0.6 v 9.9 c 0,0.2 -0.1,0.4 -0.2,0.5 -0.1,0.1 -0.3,0.2 -0.5,0.2 -0.2,0 -0.4,-0.1 -0.5,-0.2 -0.1,-0.1 -0.2,-0.3 -0.2,-0.5 v -4.4 h -6.8 v 4.4 c 0,0.2 -0.1,0.4 -0.2,0.5 -0.1,0.1 -0.3,0.3 -0.6,0.3 z"
             style="stroke-width:2.64022" />
          <path
             id="path408_00000171692381947600316880000017416069584909897642_"
             d="m 1113.4,125.9 c -0.9,0 -1.7,-0.1 -2.4,-0.4 -0.7,-0.3 -1.3,-0.7 -1.8,-1.2 -0.5,-0.5 -0.9,-1.1 -1.2,-1.9 -0.3,-0.7 -0.4,-1.5 -0.4,-2.4 0,-0.9 0.1,-1.7 0.4,-2.4 0.3,-0.7 0.7,-1.3 1.2,-1.9 0.5,-0.6 1.1,-0.9 1.8,-1.2 0.7,-0.3 1.5,-0.4 2.4,-0.4 0.9,0 1.6,0.1 2.4,0.4 0.8,0.3 1.3,0.7 1.8,1.2 0.5,0.5 0.9,1.1 1.2,1.9 0.3,0.7 0.4,1.5 0.4,2.4 0,0.9 -0.1,1.7 -0.4,2.4 -0.3,0.7 -0.7,1.3 -1.2,1.9 -0.5,0.5 -1.1,0.9 -1.8,1.2 -0.8,0.3 -1.6,0.4 -2.4,0.4 z m 0,-1.4 c 0.6,0 1.2,-0.1 1.8,-0.3 0.5,-0.2 1,-0.5 1.4,-1 0.4,-0.4 0.7,-0.9 0.9,-1.4 0.2,-0.5 0.3,-1.1 0.3,-1.8 0,-0.7 -0.1,-1.2 -0.3,-1.8 -0.2,-0.5 -0.5,-1 -0.9,-1.4 -0.4,-0.4 -0.9,-0.7 -1.4,-0.9 -0.5,-0.2 -1.1,-0.3 -1.8,-0.3 -0.7,0 -1.2,0.1 -1.8,0.3 -0.5,0.2 -1,0.5 -1.4,0.9 -0.4,0.4 -0.7,0.9 -0.9,1.4 -0.2,0.5 -0.3,1.1 -0.3,1.8 0,0.7 0.1,1.2 0.3,1.8 0.2,0.5 0.5,1 0.9,1.4 0.4,0.4 0.8,0.7 1.4,1 0.6,0.2 1.1,0.3 1.8,0.3 z m 4,1 -3.1,-3.1 c -0.2,-0.2 -0.2,-0.3 -0.2,-0.5 0,-0.2 0.1,-0.4 0.2,-0.5 0.1,-0.1 0.3,-0.2 0.5,-0.2 0.2,0 0.4,0.1 0.5,0.2 l 3.1,3.1 c 0.1,0.2 0.2,0.3 0.2,0.5 0,0.2 -0.1,0.4 -0.2,0.5 -0.1,0.1 -0.3,0.2 -0.5,0.2 -0.2,0 -0.4,0 -0.5,-0.2 z"
             style="stroke-width:2.64022" />
        </g>
      </g>
      <g
         id="g413_00000021813148502268143330000003609959617117546416_"
         style="stroke-width:2.64022">
        <g
           id="g412_00000054240108637398492750000006795587030580268197_"
           style="stroke-width:2.64022">
          <path
             id="path409_00000099649893951457392920000006414896203685345667_"
             d="m 1038.1,152 c -0.8,0 -1.5,-0.1 -2.2,-0.4 -0.7,-0.3 -1.3,-0.7 -1.8,-1.2 -0.5,-0.5 -0.9,-1.2 -1.2,-1.9 -0.3,-0.7 -0.4,-1.5 -0.4,-2.3 0,-0.8 0.1,-1.6 0.4,-2.3 0.3,-0.7 0.7,-1.3 1.2,-1.9 0.5,-0.5 1.1,-1 1.8,-1.3 0.7,-0.3 1.4,-0.5 2.2,-0.5 0.8,0 1.4,0.1 1.9,0.3 0.5,0.2 1.1,0.5 1.6,1 0.1,0.1 0.1,0.1 0.2,0.2 0,0.1 0.1,0.1 0.1,0.2 0,0.1 0,0.1 0,0.2 0,0.2 -0.1,0.3 -0.2,0.5 -0.1,0.1 -0.3,0.2 -0.5,0.2 -0.2,0 -0.4,0 -0.5,-0.2 -0.4,-0.3 -0.7,-0.6 -1.1,-0.7 -0.4,-0.2 -0.9,-0.2 -1.5,-0.2 -0.6,0 -1.1,0.1 -1.6,0.4 -0.5,0.2 -1,0.6 -1.3,1 -0.4,0.4 -0.7,0.9 -0.9,1.4 -0.2,0.5 -0.3,1.1 -0.3,1.7 0,0.6 0.1,1.2 0.3,1.8 0.2,0.6 0.5,1 0.9,1.4 0.4,0.4 0.8,0.7 1.3,1 0.5,0.2 1.1,0.3 1.6,0.3 0.5,0 1,-0.1 1.4,-0.3 0.4,-0.2 0.9,-0.4 1.3,-0.7 0.2,-0.1 0.4,-0.2 0.5,-0.2 0.2,0 0.3,0.1 0.4,0.2 0.1,0.1 0.2,0.3 0.2,0.5 0,0.1 0,0.2 -0.1,0.3 0,0.1 -0.1,0.2 -0.2,0.3 -0.5,0.4 -1.1,0.7 -1.7,1 -0.5,0.1 -1.1,0.2 -1.8,0.2 z"
             style="stroke-width:2.64022" />
          <path
             id="path410_00000147209463323988016470000016704022672160461220_"
             d="m 1045.1,142.5 c -0.3,0 -0.5,-0.1 -0.7,-0.3 -0.2,-0.2 -0.3,-0.4 -0.3,-0.7 0,-0.3 0.1,-0.5 0.3,-0.7 0.2,-0.2 0.4,-0.3 0.7,-0.3 0.3,0 0.5,0.1 0.7,0.3 0.2,0.2 0.3,0.4 0.3,0.7 0,0.3 -0.1,0.5 -0.3,0.7 -0.2,0.2 -0.4,0.3 -0.7,0.3 z m 0,9.3 c -0.2,0 -0.4,-0.1 -0.5,-0.2 -0.1,-0.1 -0.2,-0.3 -0.2,-0.5 v -6.5 c 0,-0.2 0.1,-0.4 0.2,-0.5 0.1,-0.1 0.3,-0.2 0.5,-0.2 0.2,0 0.4,0.1 0.5,0.2 0.1,0.1 0.2,0.3 0.2,0.5 v 6.5 c 0,0.2 -0.1,0.4 -0.2,0.5 -0.1,0.1 -0.3,0.2 -0.5,0.2 z"
             style="stroke-width:2.64022" />
          <path
             id="path411_00000061463167766394650330000007635167317579241143_"
             d="m 1048.3,145.4 c -0.2,0 -0.4,-0.1 -0.5,-0.2 -0.1,-0.1 -0.2,-0.3 -0.2,-0.4 0,-0.2 0.1,-0.4 0.2,-0.5 0.1,-0.1 0.3,-0.2 0.5,-0.2 h 3.4 c 0.2,0 0.4,0.1 0.5,0.2 0.1,0.1 0.2,0.3 0.2,0.5 0,0.2 -0.1,0.3 -0.2,0.4 -0.1,0.1 -0.3,0.2 -0.5,0.2 z m 3.3,6.4 c -0.5,0 -0.9,-0.1 -1.3,-0.4 -0.4,-0.2 -0.7,-0.6 -0.9,-1 -0.2,-0.4 -0.3,-0.9 -0.3,-1.5 v -7 c 0,-0.2 0.1,-0.4 0.2,-0.5 0.1,-0.1 0.3,-0.2 0.5,-0.2 0.2,0 0.4,0.1 0.5,0.2 0.1,0.1 0.2,0.3 0.2,0.5 v 7 c 0,0.4 0.1,0.7 0.3,1 0.2,0.3 0.5,0.4 0.8,0.4 h 0.5 c 0.2,0 0.3,0.1 0.4,0.2 0.1,0.1 0.2,0.3 0.2,0.5 0,0.2 -0.1,0.4 -0.2,0.5 -0.1,0.1 -0.4,0.2 -0.6,0.2 h -0.3 z"
             style="stroke-width:2.64022" />
          <path
             id="path412_00000160157290289610350430000002319650751425534604_"
             d="m 1057.7,151.5 c -0.2,0.1 -0.4,0.1 -0.5,0 -0.2,-0.1 -0.3,-0.2 -0.4,-0.4 l -3.4,-6.4 c -0.1,-0.2 -0.1,-0.4 0,-0.5 0.1,-0.2 0.2,-0.3 0.4,-0.4 0.2,-0.1 0.4,-0.1 0.5,0 0.2,0.1 0.3,0.2 0.4,0.4 l 3.2,6.4 c 0.1,0.2 0.1,0.4 0.1,0.5 0,0.1 -0.1,0.3 -0.3,0.4 z m -1.7,3.9 c -0.1,0 -0.2,0 -0.4,-0.1 -0.4,-0.2 -0.5,-0.5 -0.4,-0.9 l 4.5,-10.1 c 0.2,-0.4 0.5,-0.5 0.9,-0.4 0.4,0.2 0.6,0.5 0.4,0.9 l -4.4,10.1 c -0.2,0.3 -0.3,0.5 -0.6,0.5 z"
             style="stroke-width:2.64022" />
        </g>
      </g>
      <g
         id="g394_00000003786993387944179850000010773924830748158396_"
         style="stroke-width:2.64022">
        <rect
           id="rect390_00000005251312041745376200000015715111919367436968_"
           x="295.70001"
           y="313.20001"
           transform="matrix(0.7071,-0.7071,0.7071,0.7071,-135.8869,303.3269)"
           class="st5"
           width="5.0999999"
           height="5.0999999"
           style="fill:#f7e770;stroke-width:2.64022" />
        <rect
           id="rect391_00000106108216432437925780000007693737956087877026_"
           x="288.60001"
           y="313.20001"
           transform="matrix(0.7071,-0.7071,0.7071,0.7071,-137.9968,298.3415)"
           class="st5"
           width="5.0999999"
           height="5.0999999"
           style="fill:#f7e770;stroke-width:2.64022" />
        <rect
           id="rect392_00000088815206716387792380000003521085677960535702_"
           x="295.70001"
           y="320.29999"
           transform="matrix(0.7071,-0.7071,0.7071,0.7071,-140.9303,305.4128)"
           class="st5"
           width="5.0999999"
           height="5.0999999"
           style="fill:#f7e770;stroke-width:2.64022" />
        <rect
           id="rect393_00000140716985833621627010000000819572509203889043_"
           x="302.79999"
           y="313.20001"
           transform="matrix(0.7071,-0.7071,0.7071,0.7071,-133.801,308.3704)"
           class="st5"
           width="5.0999999"
           height="5.0999999"
           style="fill:#f7e770;stroke-width:2.64022" />
        <rect
           id="rect394_00000030487662032426593830000015096426585684263318_"
           x="295.70001"
           y="306"
           transform="matrix(0.7071,-0.7071,0.7071,0.7071,-130.8435,301.2411)"
           class="st5"
           width="5.0999999"
           height="5.0999999"
           style="fill:#f7e770;stroke-width:2.64022" />
      </g>
      <circle
         id="circle394_00000183234464492293007700000014396677351732299694_"
         class="st6"
         cx="680.70001"
         cy="373.10001"
         r="7.8000002"
         style="fill:#e31c49;stroke-width:2.64022" />
      <polygon
         id="polygon390_00000052104602416288133270000013101107688229576598_"
         class="st4"
         points="565.8,427.4 569.4,420.1 572.9,427.4 581,428.6 575.2,434.2 576.5,442.2 569.4,438.4 562.2,442.2 563.6,434.2 557.8,428.6 "
         style="fill:#f9e63d;stroke-width:2.64022" />
      <circle
         id="circle394_00000007424152594688518470000000912163074464134046_"
         class="st6"
         cx="626.90002"
         cy="619.70001"
         r="7.8000002"
         style="fill:#e31c49;stroke-width:2.64022" />
      <circle
         id="circle394_00000111149268302633850220000006623218278927749049_"
         class="st6"
         cx="762.29999"
         cy="284.5"
         r="7.8000002"
         style="fill:#e31c49;stroke-width:2.64022" />
      <circle
         id="circle394_00000159458308662975238380000014658244410557230527_"
         class="st6"
         cx="612.29999"
         cy="500.60001"
         r="7.8000002"
         style="fill:#e31c49;stroke-width:2.64022" />
      <g
         id="g394_00000149341164829264918640000000357521629902432928_"
         style="stroke-width:2.64022">
        <rect
           id="rect390_00000124879214574734539430000001701513372896938904_"
           x="930"
           y="434.79999"
           transform="matrix(0.7071,-0.7071,0.7071,0.7071,-36.1501,787.5073)"
           class="st5"
           width="5.0999999"
           height="5.0999999"
           style="fill:#f7e770;stroke-width:2.64022" />
        <rect
           id="rect391_00000102503138621812666130000002263174541070180543_"
           x="922.90002"
           y="434.89999"
           transform="matrix(0.7071,-0.7071,0.7071,0.7071,-38.26,782.5219)"
           class="st5"
           width="5.0999999"
           height="5.0999999"
           style="fill:#f7e770;stroke-width:2.64022" />
        <rect
           id="rect392_00000089535584368931205900000015376884371081028540_"
           x="930"
           y="442"
           transform="matrix(0.7071,-0.7071,0.7071,0.7071,-41.1935,789.5933)"
           class="st5"
           width="5.0999999"
           height="5.0999999"
           style="fill:#f7e770;stroke-width:2.64022" />
        <rect
           id="rect393_00000068651835851140476860000002889530901281192844_"
           x="937.09998"
           y="434.89999"
           transform="matrix(0.7071,-0.7071,0.7071,0.7071,-34.0642,792.5508)"
           class="st5"
           width="5.0999999"
           height="5.0999999"
           style="fill:#f7e770;stroke-width:2.64022" />
        <rect
           id="rect394_00000090278911394202120460000017967197214796941752_"
           x="930"
           y="427.70001"
           transform="matrix(0.7071,-0.7071,0.7071,0.7071,-31.1067,785.4215)"
           class="st5"
           width="5.0999999"
           height="5.0999999"
           style="fill:#f7e770;stroke-width:2.64022" />
      </g>
      <g
         id="g394_00000160166371045698923650000011935549323656588984_"
         style="stroke-width:2.64022">
        <rect
           id="rect390_00000026145232751728470820000009346513754814141577_"
           x="728.79999"
           y="540.70001"
           transform="matrix(0.7071,-0.7071,0.7071,0.7071,-169.9414,676.229)"
           class="st5"
           width="5.0999999"
           height="5.0999999"
           style="fill:#f7e770;stroke-width:2.64022" />
        <rect
           id="rect391_00000182516384900948219840000017109104182473596841_"
           x="721.70001"
           y="540.79999"
           transform="matrix(0.7071,-0.7071,0.7071,0.7071,-172.0513,671.2436)"
           class="st5"
           width="5.0999999"
           height="5.0999999"
           style="fill:#f7e770;stroke-width:2.64022" />
        <rect
           id="rect392_00000044859400428859631320000005551812448704107948_"
           x="728.79999"
           y="547.79999"
           transform="matrix(0.7071,-0.7071,0.7071,0.7071,-174.9848,678.3149)"
           class="st5"
           width="5.0999999"
           height="5.0999999"
           style="fill:#f7e770;stroke-width:2.64022" />
        <rect
           id="rect393_00000120519978747230023260000002270096806857791669_"
           x="735.90002"
           y="540.70001"
           transform="matrix(0.7071,-0.7071,0.7071,0.7071,-167.8556,681.2725)"
           class="st5"
           width="5.0999999"
           height="5.0999999"
           style="fill:#f7e770;stroke-width:2.64022" />
        <rect
           id="rect394_00000144307576559475850870000013225153843073582491_"
           x="728.79999"
           y="533.59998"
           transform="matrix(0.7071,-0.7071,0.7071,0.7071,-164.898,674.1432)"
           class="st5"
           width="5.0999999"
           height="5.0999999"
           style="fill:#f7e770;stroke-width:2.64022" />
      </g>
      <circle
         id="circle394_00000126286331769084373200000004021236163629267842_"
         class="st6"
         cx="308.79999"
         cy="553.90002"
         r="3.3"
         style="fill:#e31c49;stroke-width:2.64022" />
      <circle
         id="circle394_00000125574981433953664760000018277828121873866120_"
         class="st6"
         cx="189"
         cy="561.20001"
         r="5"
         style="fill:#e31c49;stroke-width:2.64022" />
      <circle
         id="circle394_00000031928416659772584400000017747610579197154199_"
         class="st6"
         cx="903.90002"
         cy="527.5"
         r="7.8000002"
         style="fill:#e31c49;stroke-width:2.64022" />
      <rect
         x="1000.8"
         y="163.60001"
         class="st23"
         width="22.4"
         height="22.4"
         id="rect1977"
         style="fill:#38489e;stroke-width:2.64022" />
      <g
         id="g1993"
         style="stroke-width:2.64022">
        <g
           id="g1991"
           style="stroke-width:2.64022">
          <path
             d="m 1035.1,180.2 c -0.2,0 -0.4,-0.1 -0.6,-0.2 -0.2,-0.2 -0.2,-0.3 -0.2,-0.6 v -10.3 c 0,-0.2 0.1,-0.4 0.2,-0.6 0.2,-0.1 0.3,-0.2 0.6,-0.2 0.2,0 0.4,0.1 0.6,0.2 0.1,0.1 0.2,0.3 0.2,0.6 v 4.4 h 7.1 v -4.4 c 0,-0.2 0.1,-0.4 0.2,-0.6 0.1,-0.2 0.3,-0.2 0.6,-0.2 0.2,0 0.4,0.1 0.6,0.2 0.1,0.1 0.2,0.3 0.2,0.6 v 10.3 c 0,0.2 -0.1,0.4 -0.2,0.6 -0.1,0.2 -0.3,0.2 -0.6,0.2 -0.2,0 -0.4,-0.1 -0.6,-0.2 -0.2,-0.2 -0.2,-0.3 -0.2,-0.6 v -4.5 h -7.1 v 4.5 c 0,0.2 -0.1,0.4 -0.2,0.6 -0.2,0.1 -0.4,0.2 -0.6,0.2 z"
             id="path1979"
             style="stroke-width:2.64022" />
          <path
             d="m 1050.8,180.2 c -0.7,0 -1.4,-0.2 -2,-0.6 -0.6,-0.4 -1.1,-0.9 -1.4,-1.5 -0.3,-0.6 -0.5,-1.4 -0.5,-2.2 0,-0.8 0.2,-1.5 0.6,-2.2 0.4,-0.6 0.9,-1.1 1.5,-1.5 0.6,-0.4 1.3,-0.6 2.1,-0.6 0.8,0 1.5,0.2 2.1,0.6 0.6,0.4 1.1,0.9 1.5,1.5 0.4,0.6 0.6,1.4 0.6,2.2 h -0.6 c 0,0.8 -0.2,1.5 -0.5,2.2 -0.3,0.6 -0.8,1.1 -1.4,1.5 -0.5,0.5 -1.2,0.6 -2,0.6 z m 0.4,-1.3 c 0.5,0 1,-0.1 1.4,-0.4 0.4,-0.2 0.7,-0.6 1,-1 0.3,-0.4 0.4,-0.9 0.4,-1.5 0,-0.5 -0.1,-1 -0.4,-1.5 -0.2,-0.4 -0.6,-0.8 -1,-1 -0.4,-0.2 -0.9,-0.4 -1.4,-0.4 -0.5,0 -1,0.1 -1.4,0.4 -0.4,0.3 -0.7,0.6 -1,1 -0.2,0.4 -0.4,0.9 -0.4,1.5 0,0.5 0.1,1 0.4,1.5 0.3,0.5 0.6,0.8 1,1 0.4,0.2 0.8,0.4 1.4,0.4 z m 3.4,1.3 c -0.2,0 -0.4,-0.1 -0.6,-0.2 -0.1,-0.1 -0.2,-0.3 -0.2,-0.6 v -2.3 l 0.3,-1.6 1.3,0.5 v 3.4 c 0,0.2 -0.1,0.4 -0.2,0.6 -0.2,0.1 -0.4,0.2 -0.6,0.2 z"
             id="path1981"
             style="stroke-width:2.64022" />
          <path
             d="m 1058.4,180.2 c -0.2,0 -0.4,-0.1 -0.6,-0.2 -0.1,-0.1 -0.2,-0.3 -0.2,-0.6 v -6.8 c 0,-0.2 0.1,-0.4 0.2,-0.6 0.1,-0.2 0.3,-0.2 0.6,-0.2 0.3,0 0.4,0.1 0.6,0.2 0.1,0.1 0.2,0.3 0.2,0.6 v 6.8 c 0,0.2 -0.1,0.4 -0.2,0.6 -0.1,0.2 -0.3,0.2 -0.6,0.2 z m 0,-5.2 c 0,-0.6 0.1,-1.2 0.4,-1.6 0.3,-0.4 0.7,-0.9 1.2,-1.1 0.5,-0.3 1.1,-0.4 1.7,-0.4 0.6,0 1.1,0.1 1.4,0.3 0.3,0.2 0.4,0.4 0.3,0.7 0,0.1 -0.1,0.3 -0.2,0.3 -0.1,0 -0.2,0.1 -0.3,0.1 -0.1,0 -0.2,0 -0.4,0 -0.6,-0.1 -1.2,-0.1 -1.8,0 -0.6,0.1 -0.9,0.3 -1.2,0.6 -0.3,0.3 -0.4,0.7 -0.4,1.2 h -0.7 z"
             id="path1983"
             style="stroke-width:2.64022" />
          <path
             d="m 1069.2,180.2 c -0.8,0 -1.5,-0.2 -2.1,-0.6 -0.6,-0.4 -1.1,-0.9 -1.5,-1.5 -0.4,-0.6 -0.6,-1.4 -0.6,-2.2 V 169 c 0,-0.2 0.1,-0.4 0.2,-0.6 0.1,-0.2 0.3,-0.2 0.6,-0.2 0.2,0 0.4,0.1 0.6,0.2 0.1,0.1 0.2,0.3 0.2,0.6 v 4.1 c 0.4,-0.4 0.8,-0.8 1.3,-1 0.5,-0.2 1.1,-0.4 1.7,-0.4 0.7,0 1.4,0.2 2,0.6 0.6,0.4 1.1,0.9 1.4,1.5 0.3,0.6 0.5,1.4 0.5,2.2 0,0.8 -0.2,1.5 -0.6,2.2 -0.4,0.7 -0.9,1.1 -1.5,1.5 -0.7,0.4 -1.4,0.5 -2.2,0.5 z m 0,-1.3 c 0.5,0 1,-0.1 1.4,-0.4 0.4,-0.2 0.7,-0.6 1,-1 0.3,-0.4 0.4,-0.9 0.4,-1.5 0,-0.5 -0.1,-1 -0.4,-1.5 -0.2,-0.4 -0.6,-0.8 -1,-1 -0.4,-0.2 -0.9,-0.4 -1.4,-0.4 -0.5,0 -1,0.1 -1.4,0.4 -0.4,0.2 -0.7,0.6 -1,1 -0.2,0.4 -0.3,0.9 -0.3,1.5 0,0.5 0.1,1 0.3,1.5 0.2,0.5 0.6,0.8 1,1 0.5,0.3 0.9,0.4 1.4,0.4 z"
             id="path1985"
             style="stroke-width:2.64022" />
          <path
             d="m 1079.5,180.2 c -0.8,0 -1.5,-0.2 -2.2,-0.5 -0.6,-0.4 -1.1,-0.9 -1.5,-1.5 -0.4,-0.6 -0.5,-1.4 -0.5,-2.2 0,-0.8 0.2,-1.6 0.5,-2.2 0.3,-0.6 0.9,-1.1 1.5,-1.5 0.6,-0.4 1.4,-0.5 2.2,-0.5 0.8,0 1.5,0.2 2.2,0.5 0.6,0.4 1.1,0.9 1.5,1.5 0.4,0.6 0.5,1.4 0.5,2.2 0,0.8 -0.2,1.5 -0.5,2.2 -0.3,0.7 -0.8,1.1 -1.5,1.5 -0.6,0.4 -1.4,0.5 -2.2,0.5 z m 0,-1.3 c 0.5,0 1,-0.1 1.4,-0.4 0.4,-0.2 0.7,-0.6 1,-1 0.2,-0.4 0.3,-0.9 0.3,-1.5 0,-0.6 -0.1,-1.1 -0.3,-1.5 -0.2,-0.4 -0.5,-0.8 -1,-1 -0.4,-0.2 -0.9,-0.4 -1.4,-0.4 -0.5,0 -1,0.1 -1.4,0.4 -0.4,0.2 -0.7,0.6 -1,1 -0.2,0.4 -0.3,0.9 -0.3,1.5 0,0.6 0.1,1 0.3,1.5 0.2,0.4 0.6,0.8 1,1 0.4,0.3 0.9,0.4 1.4,0.4 z"
             id="path1987"
             style="stroke-width:2.64022" />
          <path
             d="m 1086.8,180.2 c -0.2,0 -0.4,-0.1 -0.6,-0.2 -0.1,-0.1 -0.2,-0.3 -0.2,-0.6 v -6.8 c 0,-0.2 0.1,-0.4 0.2,-0.6 0.1,-0.2 0.3,-0.2 0.6,-0.2 0.3,0 0.4,0.1 0.6,0.2 0.1,0.1 0.2,0.3 0.2,0.6 v 6.8 c 0,0.2 -0.1,0.4 -0.2,0.6 -0.1,0.2 -0.4,0.2 -0.6,0.2 z m 0,-5.2 c 0,-0.6 0.1,-1.2 0.4,-1.6 0.3,-0.4 0.7,-0.9 1.2,-1.1 0.5,-0.3 1.1,-0.4 1.7,-0.4 0.6,0 1.1,0.1 1.4,0.3 0.3,0.2 0.4,0.4 0.3,0.7 0,0.1 -0.1,0.3 -0.2,0.3 -0.1,0 -0.2,0.1 -0.3,0.1 -0.1,0 -0.2,0 -0.4,0 -0.6,-0.1 -1.2,-0.1 -1.8,0 -0.6,0.1 -0.9,0.3 -1.2,0.6 -0.3,0.3 -0.4,0.7 -0.4,1.2 h -0.7 z"
             id="path1989"
             style="stroke-width:2.64022" />
        </g>
      </g>
      <rect
         x="570.40002"
         y="631.90002"
         class="st23"
         width="13.5"
         height="13.5"
         id="rect1995"
         style="fill:#38489e;stroke-width:2.64022" />
      <rect
         x="544.29999"
         y="392"
         class="st23"
         width="13.5"
         height="13.5"
         id="rect1999-7"
         style="fill:#38489e;stroke-width:2.64022" />
      <rect
         x="546.09998"
         y="254.89999"
         class="st23"
         width="13.5"
         height="13.5"
         id="rect2003"
         style="fill:#38489e;stroke-width:2.64022" />
      <rect
         x="185.8"
         y="516.90002"
         class="st23"
         width="13.5"
         height="13.5"
         id="rect2007"
         style="fill:#38489e;stroke-width:2.64022" />
    </g>
    <g
       inkscape:groupmode="layer"
       id="layer24"
       inkscape:label="text"
       style="display:none"
       sodipodi:insensitive="true">
      <text
         transform="matrix(0.37875738,0,0,0.37875738,949.12591,761.12376)"
         class="st17 st7 st18"
         id="text2005"
         style="font-size:11.6166px;font-family:HelveticaNeue-Medium;display:inline;fill:#231f20;stroke-width:2.64022">Bayam Harbor</text>
      <text
         transform="matrix(0.37875738,0,0,0.37875738,1087.5803,662.55765)"
         class="st7 st18"
         id="text2001"
         style="font-size:11.6166px;font-family:HelveticaNeue-Medium;display:inline;stroke-width:2.64022">Rolls Harbor</text>
      <text
         transform="matrix(0.37875738,0,0,0.37875738,1112.5666,733.67446)"
         class="st7 st8"
         id="text1905"
         style="font-size:21.081px;font-family:HelveticaNeue-Medium;display:inline;stroke-width:2.64022">Althea</text>
      <text
         transform="matrix(0.37875738,0,0,0.37875738,1134.0652,703.77793)"
         class="st9 st10"
         id="text1907"
         style="font-size:15.8867px;font-family:HelveticaNeue-LightItalic;display:inline;stroke-width:2.64022">Tingen City</text>
      <text
         transform="matrix(0.37875738,0,0,0.37875738,1114.3454,797.18427)"
         class="st9 st10"
         id="text1910"
         style="font-size:15.8867px;font-family:HelveticaNeue-LightItalic;display:inline;stroke-width:2.64022">Seville City</text>
      <text
         transform="matrix(0.37875738,0,0,0.37875738,1163.5631,670.20108)"
         class="st9 st10"
         id="text1913"
         style="font-size:15.8867px;font-family:HelveticaNeue-LightItalic;display:inline;stroke-width:2.64022">Beldone City</text>
      <text
         transform="matrix(0.37875738,0,0,0.37875738,1104.8791,752.05112)"
         class="st9 st10"
         id="text1916"
         style="font-size:15.8867px;font-family:HelveticaNeue-LightItalic;display:inline;stroke-width:2.64022">Backlund City</text>
      <text
         transform="matrix(0.37875738,0,0,0.37875738,982.1195,678.61726)"
         class="st9 st11"
         id="text1918"
         style="font-size:10.9576px;font-family:HelveticaNeue-LightItalic;display:inline;stroke-width:2.64022">(HQ of Church of Storm)</text>
      <text
         transform="matrix(0.37875738,0,0,0.37875738,990.47788,674.0154)"
         class="st12 st11"
         id="text1920"
         style="font-size:10.9576px;font-family:Impact;display:inline;stroke-width:2.64022">Chasm of Storm</text>
      <text
         transform="matrix(0.37875738,0,0,0.37875738,1219.5328,727.32629)"
         class="st9 st11"
         id="text1928"
         style="font-size:10.9576px;font-family:HelveticaNeue-LightItalic;display:inline;stroke-width:2.64022">(HQ of Church of Evernight)</text>
      <text
         transform="matrix(0.37875738,0,0,0.37875738,1226.0964,722.72443)"
         class="st12 st11"
         id="text1930"
         style="font-size:10.9576px;font-family:Impact;display:inline;stroke-width:2.64022">Cathedral of Serenity</text>
      <text
         transform="matrix(0.37875738,0,0,0.37875738,1141.5074,767.422)"
         class="st9 st11"
         id="text1938"
         style="font-size:10.9576px;font-family:HelveticaNeue-LightItalic;display:inline;stroke-width:2.64022">(HQ of Church of Technology)</text>
      <text
         transform="matrix(0.37875738,0,0,0.37875738,1146.8437,762.82014)"
         class="st12 st11"
         id="text1940"
         style="font-size:10.9576px;font-family:Impact;display:inline;stroke-width:2.64022">Holy Numerics Cathedral</text>
      <text
         transform="matrix(0.37875738,0,0,0.37875738,1002.2375,774.75456)"
         class="st9 st13"
         id="text1943"
         style="font-size:6.9512px;font-family:HelveticaNeue-LightItalic;display:inline;stroke-width:2.64022">Oofieland</text>
      <text
         transform="matrix(0.37875738,0,0,0.37875738,952.44916,776.33208)"
         class="st9 st14"
         id="text1946"
         style="font-size:10.6908px;font-family:HelveticaNeue-LightItalic;display:inline;stroke-width:2.64022">Bayam City</text>
      <text
         transform="matrix(0.37875738,0,0,0.37875738,1103.1996,719.60184)"
         class="st17 st7 st18"
         id="text1997"
         style="font-size:11.6166px;font-family:HelveticaNeue-Medium;display:inline;fill:#231f20;stroke-width:2.64022">Pritz Harbor</text>
      <text
         transform="matrix(0.37875738,0,0,0.37875738,1215.5489,762.26651)"
         class="st9 st10"
         id="text1949"
         style="font-size:15.8867px;font-family:HelveticaNeue-LightItalic;display:inline;stroke-width:2.64022">Constant City</text>
      <text
         transform="matrix(0.37875738,0,0,0.37875738,1189.7744,665.68349)"
         class="st7 st15"
         id="text1951"
         style="font-size:20.121px;font-family:HelveticaNeue-Medium;display:inline;stroke-width:2.64022">Winter County</text>
      <text
         transform="matrix(0.37875738,0,0,0.37875738,1110.2963,671.4064)"
         id="text1957"
         style="display:inline;stroke-width:2.64022"><tspan
           x="0"
           y="0"
           class="st7 st15"
           id="tspan1953"
           style="stroke-width:2.64022">Midseashire</tspan><tspan
           x="23.200001"
           y="25.5"
           class="st7 st15"
           id="tspan1955"
           style="stroke-width:2.64022">County</tspan></text>
      <text
         transform="matrix(0.37875738,0,0,0.37875738,1194.2306,787.54963)"
         class="st7 st15"
         id="text1959"
         style="font-size:20.121px;font-family:HelveticaNeue-Medium;display:inline;stroke-width:2.64022">Southville County</text>
      <text
         transform="matrix(0.37875738,0,0,0.37875738,1103.1994,787.54951)"
         class="st7 st16"
         id="text1961"
         style="font-size:21.9316px;font-family:HelveticaNeue-Medium;display:inline;stroke-width:2.64022">Desi County</text>
      <text
         transform="matrix(0.37875738,0,0,0.37875738,1097.7698,816.38776)"
         class="st17 st7 st18"
         id="text1963"
         style="font-size:11.6166px;font-family:HelveticaNeue-Medium;display:inline;fill:#231f20;stroke-width:2.64022">Oak Harbor</text>
      <text
         transform="matrix(0.37875738,0,0,0.37875738,1162.416,733.67431)"
         class="st7 st19"
         id="text1965"
         style="font-size:18.2509px;font-family:HelveticaNeue-Medium;display:inline;stroke-width:2.64022">Awwa County</text>
      <text
         transform="matrix(0.37875738,0,0,0.37875738,950.43035,809.05361)"
         class="st17 st7 st20"
         id="text1967"
         style="font-size:19.539px;font-family:HelveticaNeue-Medium;display:inline;fill:#231f20;stroke-width:2.64022">Bayam Archipelago</text>
      <text
         transform="matrix(0.37875738,0,0,0.37875738,982.26854,711.41742)"
         class="st17 st7 st21"
         id="text1969"
         style="font-size:20.6625px;font-family:HelveticaNeue-Medium;display:inline;fill:#231f20;stroke-width:2.64022">Besu Cluster</text>
      <text
         transform="matrix(0.37875738,0,0,0.37875738,1215.7269,699.39146)"
         id="text1975"
         style="display:inline;stroke-width:2.64022"><tspan
           x="0"
           y="0"
           class="st7 st22"
           id="tspan1971"
           style="stroke-width:2.64022">East Chester</tspan><tspan
           x="27.1"
           y="22.5"
           class="st7 st22"
           id="tspan1973"
           style="stroke-width:2.64022">County</tspan></text>
    </g>
    <g
       inkscape:groupmode="layer"
       id="layer1"
       inkscape:label="Presets"
       transform="translate(-24.807064,8.1398178)">
      <g
         inkscape:groupmode="layer"
         id="layer2"
         inkscape:label="Texts">
        <text
           xml:space="preserve"
           style="font-style:normal;font-variant:normal;font-weight:normal;font-stretch:normal;font-size:17.3464px;line-height:1.25;font-family:'Helvetica Neue';-inkscape-font-specification:'Helvetica Neue, Normal';font-variant-ligatures:normal;font-variant-caps:normal;font-variant-numeric:normal;font-variant-east-asian:normal;fill:#000000;fill-opacity:1;stroke:none;stroke-width:0.43366"
           x="1115.6387"
           y="557.36072"
           id="text8"
           inkscape:label="Capital"><tspan
             sodipodi:role="line"
             id="tspan8"
             x="1115.6387"
             y="557.36072"
             style="font-style:normal;font-variant:normal;font-weight:normal;font-stretch:normal;font-size:17.3464px;font-family:'Helvetica Neue';-inkscape-font-specification:'Helvetica Neue, Normal';font-variant-ligatures:normal;font-variant-caps:normal;font-variant-numeric:normal;font-variant-east-asian:normal;stroke-width:0.43366">Capital</tspan></text>
        <text
           xml:space="preserve"
           style="font-style:normal;font-variant:normal;font-weight:normal;font-stretch:normal;font-size:17.3464px;line-height:1.25;font-family:'Helvetica Neue';-inkscape-font-specification:'Helvetica Neue, Normal';font-variant-ligatures:normal;font-variant-caps:normal;font-variant-numeric:normal;font-variant-east-asian:normal;display:inline;fill:#000000;fill-opacity:1;stroke:none;stroke-width:0.43366"
           x="1115.6387"
           y="584.39575"
           id="text8-5"
           inkscape:label="Church HQ"><tspan
             sodipodi:role="line"
             id="tspan8-0"
             x="1115.6387"
             y="584.39575"
             style="font-style:normal;font-variant:normal;font-weight:normal;font-stretch:normal;font-size:17.3464px;font-family:'Helvetica Neue';-inkscape-font-specification:'Helvetica Neue, Normal';font-variant-ligatures:normal;font-variant-caps:normal;font-variant-numeric:normal;font-variant-east-asian:normal;stroke-width:0.43366">Church HQ</tspan></text>
        <text
           xml:space="preserve"
           style="font-style:normal;font-variant:normal;font-weight:normal;font-stretch:normal;font-size:17.3464px;line-height:1.25;font-family:'Helvetica Neue';-inkscape-font-specification:'Helvetica Neue, Normal';font-variant-ligatures:normal;font-variant-caps:normal;font-variant-numeric:normal;font-variant-east-asian:normal;display:inline;fill:#000000;fill-opacity:1;stroke:none;stroke-width:0.43366"
           x="1115.6387"
           y="611.43079"
           id="text9"
           inkscape:label="City"><tspan
             sodipodi:role="line"
             id="tspan9"
             x="1115.6387"
             y="611.43079"
             style="font-style:normal;font-variant:normal;font-weight:normal;font-stretch:normal;font-size:17.3464px;font-family:'Helvetica Neue';-inkscape-font-specification:'Helvetica Neue, Normal';font-variant-ligatures:normal;font-variant-caps:normal;font-variant-numeric:normal;font-variant-east-asian:normal;stroke-width:0.43366">City</tspan></text>
        <text
           xml:space="preserve"
           style="font-style:normal;font-variant:normal;font-weight:normal;font-stretch:normal;font-size:17.3464px;line-height:1.25;font-family:'Helvetica Neue';-inkscape-font-specification:'Helvetica Neue, Normal';font-variant-ligatures:normal;font-variant-caps:normal;font-variant-numeric:normal;font-variant-east-asian:normal;display:inline;fill:#000000;fill-opacity:1;stroke:none;stroke-width:0.43366"
           x="1115.0142"
           y="638.1709"
           id="text10"
           inkscape:label="Harbor"><tspan
             sodipodi:role="line"
             id="tspan10"
             x="1115.0142"
             y="638.1709"
             style="font-style:normal;font-variant:normal;font-weight:normal;font-stretch:normal;font-size:17.3464px;font-family:'Helvetica Neue';-inkscape-font-specification:'Helvetica Neue, Normal';font-variant-ligatures:normal;font-variant-caps:normal;font-variant-numeric:normal;font-variant-east-asian:normal;stroke-width:0.43366">Harbor</tspan></text>
        <text
           xml:space="preserve"
           style="font-style:normal;font-variant:normal;font-weight:normal;font-stretch:normal;font-size:13.5238px;line-height:1.25;font-family:'Helvetica Neue';-inkscape-font-specification:'Helvetica Neue, Normal';font-variant-ligatures:normal;font-variant-caps:normal;font-variant-numeric:normal;font-variant-east-asian:normal;display:inline;fill:#000000;fill-opacity:1;stroke:none;stroke-width:0.338093"
           x="798.09692"
           y="666.17676"
           id="text8-2"
           inkscape:label="Capital"><tspan
             sodipodi:role="line"
             id="tspan8-9"
             x="798.09692"
             y="666.17676"
             style="font-style:normal;font-variant:normal;font-weight:normal;font-stretch:normal;font-size:13.5238px;font-family:'Helvetica Neue';-inkscape-font-specification:'Helvetica Neue, Normal';font-variant-ligatures:normal;font-variant-caps:normal;font-variant-numeric:normal;font-variant-east-asian:normal;stroke-width:0.338093">Althea</tspan></text>
        <polygon
           id="polygon390_00000065753685581829470360000004153974104017355922_-6-8"
           class="st4"
           points="1006.2,91.4 1000.4,85.8 1008.4,84.6 1012,77.3 1015.5,84.6 1023.6,85.8 1017.8,91.4 1019.1,99.4 1012,95.6 1004.8,99.4 "
           style="display:inline;fill:#ffcc00;stroke-width:2.64022"
           transform="matrix(0.70569641,0,0,0.74082157,74.047219,595.20317)"
           inkscape:label="Captial Icon" />
      </g>
      <g
         inkscape:groupmode="layer"
         id="layer3"
         inkscape:label="Icons">
        <polygon
           id="polygon390_00000065753685581829470360000004153974104017355922_-6"
           class="st4"
           points="1012,95.6 1004.8,99.4 1006.2,91.4 1000.4,85.8 1008.4,84.6 1012,77.3 1015.5,84.6 1023.6,85.8 1017.8,91.4 1019.1,99.4 "
           style="display:inline;fill:#ffcc00;stroke-width:2.64022"
           transform="matrix(0.9051724,0,0,0.95022623,181.49812,466.32547)"
           inkscape:label="Captial Icon" />
        <g
           id="g394_00000023976153243748684810000002447054468812133566_-8"
           style="display:inline;fill:#ffcc00;stroke-width:2.64022"
           transform="matrix(0.8040259,0,0,0.8040259,283.89616,483.33225)"
           inkscape:label="Church HQ Icon">
          <rect
             id="rect390_00000177462964302796848380000013840331324506617235_-5"
             x="1008.8"
             y="114.1"
             transform="matrix(0.7071,-0.7071,0.7071,0.7071,213.5457,749.8704)"
             class="st5"
             width="6.1999998"
             height="6.1999998"
             style="fill:#ffcc00;stroke-width:2.64022" />
          <rect
             id="rect391_00000178899645866547897630000013646642648439081095_-2"
             x="1000.2"
             y="114.1"
             transform="matrix(0.7071,-0.7071,0.7071,0.7071,210.9722,743.7894)"
             class="st5"
             width="6.1999998"
             height="6.1999998"
             style="fill:#ffcc00;stroke-width:2.64022" />
          <rect
             id="rect392_00000098923672340750900360000008557074128108868268_-8"
             x="1008.8"
             y="122.8"
             transform="matrix(0.7071,-0.7071,0.7071,0.7071,207.394,752.4147)"
             class="st5"
             width="6.1999998"
             height="6.1999998"
             style="fill:#ffcc00;stroke-width:2.64022" />
          <rect
             id="rect393_00000168101215541242334350000000140865533214879158_-8"
             x="1017.5"
             y="114.1"
             transform="matrix(0.7071,-0.7071,0.7071,0.7071,216.0899,756.0222)"
             class="st5"
             width="6.1999998"
             height="6.1999998"
             style="fill:#ffcc00;stroke-width:2.64022" />
          <rect
             id="rect394_00000113319966659622599810000013280108317437775792_-4"
             x="1008.9"
             y="105.4"
             transform="matrix(0.7071,-0.7071,0.7071,0.7071,219.6974,747.3262)"
             class="st5"
             width="6.1999998"
             height="6.1999998"
             style="fill:#ffcc00;stroke-width:2.64022" />
        </g>
        <circle
           style="fill:#e31c49;fill-opacity:1;stroke-width:0.425664"
           id="path10"
           cx="1097.5326"
           cy="632.07367"
           r="10.5"
           inkscape:label="City Icon" />
        <rect
           x="1087.0326"
           y="594.3385"
           class="st23"
           width="21"
           height="21"
           id="rect1977-5"
           style="display:inline;fill:#38489e;stroke-width:2.4752"
           inkscape:label="Harbor Icon" />
      </g>
    </g>
    <text
       xml:space="preserve"
       style="font-style:normal;font-weight:normal;font-size:39.9999px;line-height:1.25;font-family:sans-serif;fill:#000000;fill-opacity:1;stroke:none;stroke-width:0.999999"
       x="663.47369"
       y="547.56647"
       id="text1"
       inkscape:label="National Map of Estica"><tspan
         sodipodi:role="line"
         id="tspan1"
         style="font-style:normal;font-variant:normal;font-weight:bold;font-stretch:condensed;font-size:39.9999px;font-family:'Helvetica Neue';-inkscape-font-specification:'Helvetica Neue, Bold Condensed';font-variant-ligatures:normal;font-variant-caps:normal;font-variant-numeric:normal;font-variant-east-asian:normal;stroke-width:0.999999"
         x="663.47369"
         y="547.56647">National Map of Estica</tspan></text>
  </g>
</svg>
